<svg width="852" height="875" viewBox="0 0 852 875" fill="none" xmlns="http://www.w3.org/2000/svg">
<path d="M626.096 334.513L646.096 255.513C646.096 255.513 443.096 160.513 206.096 255.013L227.096 334.013C227.096 334.013 317.596 298.013 384.096 301.013L385.096 612.013L427.096 649.013L467.096 612.513V301.013C543.596 305.513 626.096 334.513 626.096 334.513Z" fill="white"/>
<path fill-rule="evenodd" clip-rule="evenodd" d="M733.096 573.013C617.096 775.513 426.096 874.013 426.096 874.013C426.096 874.013 282.097 799.513 173.097 655.013L172.001 654.5C151.5 652.5 134.532 634.258 134.001 612C133.415 587.429 153.424 566.714 178.001 567C202.165 567.282 221.099 587.334 221.001 611.5C220.978 617.246 220.5 620 218.501 626L218.097 627.013C308.097 744.013 425.596 811.013 425.596 811.013C425.596 811.013 579.097 729.013 683.097 551.513L617.597 515.513L617.501 515.5C613.501 517.5 609.054 517.939 603.501 518C578.778 518.273 558.876 496.699 560.001 472C561.081 448.27 580.248 429.687 604.001 430C626.421 430.296 644.501 447.5 646.597 468.5V469.513L708.596 503.013C794.096 339.513 796.596 169.513 796.596 169.513C796.596 169.513 704.501 104 521.501 76L520.001 76.5C512.501 83.5 501.103 88.2343 490.001 88C465.84 87.49 446.723 67.6644 447.001 43.5C447.279 19.3387 466.841 -0.359583 491.001 -3.77693e-05C505.86 0.221099 520.501 8.5 528.001 21.5L528.501 22C528.501 22 701.596 40.5127 850.596 138.513C850.596 138.513 864.096 304.013 758.596 526.013L733.096 573.013ZM491.001 61.5C500.525 61.2278 508.139 53.5269 508.001 44C507.865 34.6121 500.386 27.2681 491.001 27C481.336 26.7239 473.141 34.3321 473.001 44C472.859 53.803 481.201 61.7801 491.001 61.5ZM603.501 491.5C613.029 491.5 620.863 484.027 621.001 474.5C621.139 464.973 613.525 457.272 604.001 457C594.201 456.72 585.855 464.697 586.001 474.5C586.143 484.027 593.973 491.5 603.501 491.5ZM195 612C194.592 621.384 186.893 628.5 177.5 628.5C168.107 628.5 160.408 621.384 160 612C159.574 602.205 167.696 594 177.5 594C187.304 594 195.426 602.205 195 612Z" fill="white"/>
<path fill-rule="evenodd" clip-rule="evenodd" d="M625.596 554.013L577.596 528.513C495.096 643.013 425.597 696.013 425.597 696.013C425.597 696.013 299.597 595.513 228.597 453.013L141.597 503.013C58.5957 346.513 54.0968 169.513 54.0968 169.513C205.5 84 326.597 76.5131 326.597 76.5131C333.5 83 343.67 88.04 356 88.0127C379.887 87.96 398.729 68.3979 399 44.5127C399.275 20.3483 380.158 -0.591229 356 0.0127505C339.561 0.423734 325.33 8.03993 317.5 22.5C317.5 22.5 140.596 44.5128 0.0967734 138.013C0.0967734 138.013 -7.90427 360.013 121.597 578.013L207.597 527.013C298.597 674.013 425.597 766.013 425.597 766.013C425.597 766.013 545.596 676.513 625.596 554.013ZM338 44.5127C338.145 54.0361 345.976 61.5 355.5 61.5C365.024 61.5 372.855 54.0361 373 44.5127C373.147 34.8454 365.169 27 355.5 27C345.831 27 337.853 34.8454 338 44.5127Z" fill="white"/>
<path fill-rule="evenodd" clip-rule="evenodd" d="M750.596 187.513C750.596 187.513 419.595 36.5126 101.096 189.013C101.096 189.013 104 300.5 142.813 393.086L143 394C136.404 406.987 137.917 427.185 150 441C164.201 457.238 185.801 460.757 204.5 450C225.641 437.838 232.721 410.309 220 389.5C213.316 378.566 201.904 370.487 193 369.5L192.875 369C163 300 156.096 222.013 156.096 222.013C409.596 112.789 695.096 224.513 695.096 224.513C695.096 224.513 684.096 323.013 637.096 423.513L684.096 449.013C754.096 302.013 750.596 187.513 750.596 187.513ZM200 413C199.592 422.384 191.893 429.5 182.5 429.5C173.107 429.5 165.408 422.384 165 413C164.574 403.205 172.696 395 182.5 395C192.304 395 200.426 403.205 200 413Z" fill="white"/>
</svg>
