<svg width="711" height="738" viewBox="0 0 711 738" fill="none" xmlns="http://www.w3.org/2000/svg">
<path d="M422.777 49.7117C426.086 52.2864 429.358 55.5243 431.25 59.3103C433.304 59.7817 433.304 59.7817 435.846 60.067C436.849 60.2012 437.852 60.3358 438.856 60.4708C439.394 60.5409 439.932 60.611 440.486 60.6833C474.637 65.1906 508.076 73.5257 540.752 84.3411C542.204 84.8214 543.658 85.2981 545.112 85.774C579.008 96.9269 613.824 111.263 644.369 129.858C647.956 132.03 651.52 134.119 655.302 135.839C668.299 144.286 666.648 142.717 673.524 146.843C673.524 160.599 674.016 168.539 672.955 178.792C672.651 181.962 672.483 185.135 672.322 188.315C670.018 230.404 657.592 301.702 629.931 377.868C617.369 412.458 608.888 427.806 583.313 476.781C582.46 478.213 581.611 479.648 580.765 481.084C567.956 502.842 553.525 523.844 537.75 543.552C537.219 544.221 536.688 544.89 536.141 545.579C534.684 547.412 533.219 549.237 531.749 551.06C531.237 551.696 530.725 552.332 530.197 552.987C523.35 561.425 516.275 569.637 508.881 577.598C508.072 578.484 507.276 579.381 506.488 580.285C500.924 586.623 494.929 592.535 488.964 598.492C487.077 600.377 485.194 602.265 483.312 604.155C482.097 605.369 480.883 606.584 479.668 607.798C479.114 608.355 478.559 608.912 477.987 609.486C474.932 612.531 471.811 615.452 468.541 618.265C466.744 619.815 465.008 621.428 463.265 623.04C459.899 626.112 456.443 629.029 452.897 631.89C451.009 633.432 449.155 635.007 447.31 636.599C442.341 640.875 437.184 644.838 431.917 648.738C429.348 650.642 426.828 652.599 424.312 654.572C407.243 667.757 388.892 679.547 370.335 690.514C368.239 691.754 366.168 693.028 364.101 694.315C362.953 695.019 361.804 695.723 360.656 696.427C360.122 696.765 359.589 697.103 359.04 697.452C358.535 697.758 358.03 698.064 357.509 698.38C357.066 698.655 356.623 698.931 356.167 699.214C354.171 699.914 353.01 699.574 350.999 698.96C349.138 698.02 349.138 698.02 347.165 696.82C346.423 696.372 345.682 695.924 344.918 695.463C344.125 694.976 343.332 694.489 342.515 693.987C341.271 693.23 341.271 693.23 340.002 692.457C337.835 691.137 335.674 689.809 333.514 688.478C332.303 687.732 331.09 686.988 329.877 686.245C310.716 674.489 292.202 661.772 274.499 647.909C273.636 647.239 272.773 646.569 271.91 645.9C267.103 642.16 262.383 638.338 257.757 634.377C255.296 632.269 252.798 630.222 250.265 628.201C246.116 624.827 242.244 621.182 238.374 617.496C237.894 617.039 237.415 616.583 236.92 616.113C236.502 615.711 236.083 615.31 235.651 614.897C234.188 613.547 232.697 612.244 231.191 610.942C228.006 608.161 225.003 605.227 222.02 602.232C221.202 601.415 221.202 601.415 220.368 600.581C219.225 599.437 218.082 598.292 216.94 597.146C215.207 595.407 213.47 593.672 211.732 591.937C210.614 590.818 209.497 589.698 208.379 588.578C207.867 588.067 207.356 587.556 206.828 587.03C203.9 584.084 201.102 581.062 198.394 577.911C196.716 575.969 194.966 574.101 193.218 572.222C189.998 568.733 186.948 565.141 183.972 561.439C181.792 558.756 179.537 556.139 177.278 553.523C175.255 551.147 173.364 548.716 171.544 546.18C171.126 545.604 170.708 545.029 170.277 544.436C169.467 543.313 168.67 542.18 167.89 541.036C164.92 536.937 162.301 535.807 157.499 534.543C147.08 530.015 140.842 524.151 136.294 513.601C133.404 505.217 134.185 495.163 137.999 487.245C143.061 478.33 149.958 473.148 159.515 469.743C169.062 467.754 178.372 469.155 186.609 474.342C194.463 480.014 199.509 487.01 201.354 496.595C201.855 500.444 201.66 503.477 200.764 507.264C200.051 510.578 199.481 513.456 201.023 516.602C203.258 519.923 205.958 522.814 208.728 525.692C210.463 527.525 212 529.465 213.562 531.446C216.254 534.738 219.056 537.911 221.917 541.057C223.309 542.592 224.675 544.144 226.031 545.711C232.914 553.593 240.142 561.083 247.546 568.472C249.148 570.072 250.746 571.675 252.344 573.279C253.38 574.316 254.417 575.353 255.454 576.39C255.922 576.86 256.39 577.33 256.872 577.814C259.718 580.648 262.653 583.343 265.693 585.967C267.36 587.408 268.983 588.894 270.609 590.381C273.791 593.253 277.056 595.994 280.388 598.69C282.133 600.102 283.859 601.535 285.58 602.977C293.092 609.26 300.797 615.231 308.679 621.041C309.843 621.898 311.005 622.759 312.165 623.622C321.541 630.6 331.234 637.108 341.108 643.359C342.796 644.45 344.424 645.559 346.052 646.731C350.153 649.863 350.153 649.863 354.995 650.745C356.608 649.959 357.862 649.044 359.249 647.909C360.176 647.331 361.107 646.763 362.044 646.205C363.022 645.572 363.996 644.936 364.968 644.295C365.507 643.943 366.046 643.591 366.602 643.228C382.338 632.889 397.832 622.19 412.5 610.37C412.977 609.987 413.454 609.604 413.946 609.209C423.089 601.864 432.063 594.337 440.739 586.443C441.913 585.377 443.095 584.319 444.284 583.27C449.281 578.845 453.988 574.165 458.674 569.416C461.365 566.692 464.082 563.996 466.798 561.298C468.043 560.06 469.287 558.821 470.531 557.582C471.459 556.663 471.459 556.663 472.406 555.724C476.1 552.042 479.616 548.272 483 544.303C483.757 543.435 484.516 542.568 485.276 541.702C495.541 529.936 505.26 517.855 514.5 505.264C514.936 504.67 515.373 504.076 515.822 503.464C524.677 491.386 532.837 478.937 540.75 466.224C541.268 465.392 541.786 464.559 542.32 463.702C544.433 460.665 544.433 460.665 545.25 457.215C544.613 456.879 543.976 456.544 543.32 456.198C531.947 450.2 520.591 444.192 509.444 437.779C507.635 436.74 505.818 435.714 504 434.692C503.459 434.376 502.919 434.06 502.362 433.735C499.027 431.888 497.308 431.464 493.5 432.44C482.211 433.133 473.171 431.747 464.25 424.181C457.989 418.404 454.254 410.307 453.585 401.828C453.259 391.241 456.817 382.481 463.968 374.739C471.861 367.605 480.391 365.853 490.64 366.091C499.794 366.595 507.079 371.29 513.187 377.868C517.662 383.456 519.604 389.367 520.499 396.403C521.087 396.564 521.675 396.724 522.281 396.89C525.929 398.251 529.14 400.171 532.499 402.128C539.747 406.289 547.065 410.299 554.437 414.234C554.935 414.501 555.434 414.767 555.947 415.042C557.369 415.803 558.791 416.562 560.214 417.319C561.035 417.756 561.856 418.193 562.702 418.644C564.74 419.734 564.74 419.734 567 420.427C567.182 419.821 567.182 419.821 567.368 419.203C568.782 414.716 570.659 410.642 572.765 406.444C582.731 386.012 590.763 364.626 597.997 343.092C598.49 341.624 598.989 340.158 599.488 338.692C604.959 322.597 609.383 306.283 613.499 289.795C613.627 289.288 613.754 288.782 613.885 288.26C622.11 255.478 627.117 222.095 630 188.442C630.078 187.533 630.156 186.625 630.237 185.69C630.673 180.602 631.095 175.514 631.5 170.423C631.236 170.228 630.737 169.741 630.204 169.541C627.11 167.821 626.012 167.027 623.672 165.758C622.696 165.231 621.554 164.438 620.577 163.912C620.067 163.637 619.048 162.932 618.515 162.663C547.002 126.554 505.597 114.281 442.968 103.981C442.374 103.883 441.78 103.785 441.167 103.685C439.481 103.41 437.794 103.142 436.107 102.878C435.148 102.728 434.19 102.577 433.203 102.422C428.297 101.845 425.254 101.658 421.171 104.591C413.658 109.691 405.805 111.436 396.805 110.016C388.498 108.183 380.969 104.488 375.749 97.5992C370.225 88.9332 367.612 79.3794 369.788 69.1025C372.87 59.2104 378.159 51.8462 387.281 46.738C399.046 41.1123 411.92 42.7682 422.777 49.7117ZM391.933 69.6421C389.935 73.0192 389.566 76.1214 390.143 79.9798C391.45 83.9738 394.306 86.7964 397.828 88.9655C402.602 89.8981 406.144 89.8283 410.25 87.0886C413.682 83.8083 415.296 80.6299 415.5 75.8271C414.867 71.4273 412.669 68.8874 409.289 66.164C403.396 62.2897 396.128 64.4395 391.933 69.6421ZM477.046 391.945C474.669 395.334 474.334 398.355 474.75 402.409C476.333 406.901 479.221 409.347 483.281 411.7C486.82 412.543 489.962 411.988 493.265 410.527C495.853 408.497 498.016 406.129 499.5 403.16C499.91 399.417 499.938 396.498 498.187 393.118C497.63 392.468 497.073 391.818 496.5 391.148C496.035 390.59 495.571 390.033 495.093 389.458C492.681 387.47 490.267 386.843 487.218 386.361C483.148 386.943 479.727 388.826 477.046 391.945ZM158.015 495.222C155.412 498.89 155.382 502.359 155.999 506.765C157.619 510.319 159.728 512.322 163.078 514.273C167.204 515.432 169.764 515.578 173.718 513.803C177.041 511.699 179.491 509.043 180.749 505.264C181.19 500.767 180.229 497.685 177.749 494.002C174.089 490.516 171.024 489.98 166.127 490.037C162.412 490.455 160.395 492.518 158.015 495.222Z" fill="white"/>
<path d="M319.5 48.7526C327.126 54.3288 331.98 61.3796 334.312 70.5248C335.214 81.5798 333.393 90.6834 326.273 99.4086C319.549 106.713 311.024 110.156 301.219 110.597C294.149 110.397 287.233 108.084 281.25 104.356C280.755 103.73 280.755 103.73 280.251 103.092C278.576 101.769 277.322 101.986 275.264 102.209C274.733 102.283 274.203 102.356 273.656 102.432C273.075 102.506 272.494 102.58 271.896 102.656C218.746 109.863 166.11 126.17 117.692 149.116C115.409 150.195 113.12 151.261 110.83 152.326C102.025 156.455 93.4666 160.855 85.0749 165.777C81.7761 167.702 78.7195 169.423 74.9998 170.423C75.2473 170.919 75.4948 171.414 75.7498 171.925C75.9288 173.823 76.0691 175.709 76.1834 177.611C76.2633 178.823 76.3437 180.034 76.4246 181.246C76.4669 181.889 76.5093 182.533 76.5529 183.197C80.5135 242.315 93.86 327.045 135.75 409.166C136.674 411.135 137.596 413.106 138.515 415.078C138.859 415.804 139.202 416.53 139.556 417.278C140.25 418.926 140.25 418.926 140.25 420.427C141.067 419.948 141.067 419.948 141.901 419.458C142.674 419.005 143.447 418.551 144.243 418.084C144.667 417.836 145.09 417.587 145.526 417.331C147.927 415.922 150.328 414.513 152.729 413.105C157.715 410.18 162.7 407.253 167.681 404.318C178.206 398.119 188.764 391.989 199.432 386.04C200.715 385.305 201.965 384.512 203.203 383.704C203.713 383.435 204.224 383.166 204.75 382.889C207 383.64 207 383.64 207.81 384.839C208.063 385.362 208.316 385.884 208.576 386.423C208.875 387.024 209.175 387.625 209.483 388.244C209.808 388.908 210.133 389.572 210.469 390.256C215.326 399.858 220.916 408.967 226.569 418.112C227.766 420.049 228.956 421.99 230.141 423.935C239.938 439.925 250.958 455.21 262.5 469.978C263.169 470.842 263.838 471.706 264.507 472.57C268.849 478.164 273.324 483.625 277.933 489.001C279.036 490.29 280.133 491.584 281.229 492.879C285.748 498.203 290.367 503.411 295.119 508.528C295.927 509.414 296.723 510.311 297.511 511.215C303.076 517.553 309.07 523.465 315.036 529.422C316.922 531.306 318.805 533.195 320.688 535.084C321.902 536.299 323.116 537.514 324.331 538.728C324.886 539.285 325.441 539.842 326.012 540.416C329.061 543.454 332.176 546.37 335.439 549.176C337.392 550.865 339.268 552.63 341.156 554.392C345.035 557.986 349.065 561.339 353.25 564.574C357.848 561.299 361.977 557.638 366.102 553.799C367.749 552.275 369.408 550.786 371.109 549.324C380.01 541.541 388.389 533.231 396.75 524.877C397.228 524.4 397.707 523.923 398.2 523.432C405.004 516.66 405.004 516.66 411.425 509.526C413.185 507.464 415.053 505.505 416.906 503.527C420.254 499.926 423.427 496.231 426.504 492.392C428.11 490.42 429.758 488.497 431.428 486.579C436.441 480.814 441.107 474.827 445.691 468.716C447.064 466.889 448.445 465.068 449.827 463.247C455.599 455.619 461.169 447.891 466.5 439.947C469.532 440.407 471.859 441.388 474.571 442.806C475.405 443.24 476.238 443.674 477.097 444.121C477.987 444.591 478.876 445.061 479.765 445.531C480.674 446.007 481.582 446.483 482.491 446.958C489.728 450.756 496.893 454.68 504 458.716C502.8 462.335 500.767 465.135 498.562 468.195C498.166 468.75 497.769 469.306 497.361 469.878C496.08 471.667 494.791 473.451 493.5 475.233C493.077 475.817 492.654 476.401 492.219 477.003C477.803 496.872 462.48 516.032 445.816 534.062C444.273 535.747 442.768 537.454 441.281 539.189C438.922 541.918 436.391 544.442 433.805 546.954C432.318 548.481 430.926 550.031 429.536 551.644C426.752 554.854 423.807 557.871 420.797 560.867C420.298 561.369 419.8 561.87 419.286 562.387C416.317 565.354 413.26 568.167 410.084 570.91C408.438 572.356 406.9 573.886 405.375 575.46C402.876 577.991 400.311 580.374 397.614 582.689C395.714 584.342 393.867 586.047 392.015 587.754C388.668 590.81 385.228 593.705 381.703 596.552C379.227 598.582 376.809 600.671 374.39 602.769C369.963 606.599 365.417 610.252 360.794 613.843C359.327 614.983 357.894 616.169 356.511 617.409C354.75 618.629 354.75 618.629 353.305 618.661C351.015 617.508 349.088 615.969 347.109 614.359C346.427 613.812 346.427 613.812 345.731 613.254C344.232 612.049 342.74 610.835 341.25 609.62C340.737 609.203 340.224 608.787 339.696 608.357C329.897 600.389 320.285 592.213 310.995 583.654C309.382 582.189 307.754 580.75 306.111 579.319C297.194 571.525 288.783 563.181 280.406 554.814C280.002 554.411 279.598 554.009 279.182 553.594C275.135 549.558 271.142 545.511 267.427 541.161C265.392 538.806 263.233 536.568 261.094 534.309C257.407 530.388 253.916 526.398 250.558 522.191C248.957 520.226 247.286 518.35 245.578 516.478C242.297 512.865 239.258 509.105 236.25 505.264C235.651 504.511 235.053 503.758 234.436 502.982C220.236 485.086 207.242 466.445 194.844 447.267C193.412 445.067 191.959 442.881 190.5 440.698C187.771 441.725 185.301 442.954 182.777 444.414C182.006 444.859 181.235 445.304 180.44 445.763C179.614 446.244 178.788 446.725 177.937 447.22C177.065 447.727 176.192 448.233 175.32 448.739C160.805 457.179 146.478 465.91 132.28 474.873C131.693 475.24 131.105 475.606 130.5 475.984C129.868 476.434 129.236 476.883 128.585 477.347C126.75 478.236 126.75 478.236 125.165 477.868C123.336 476.403 122.489 474.926 121.365 472.866C120.921 472.061 120.477 471.256 120.02 470.427C119.544 469.542 119.069 468.657 118.594 467.772C118.094 466.854 117.593 465.936 117.092 465.018C115.546 462.175 114.02 459.321 112.5 456.464C112.044 455.609 111.588 454.753 111.119 453.872C108.013 448.012 104.983 442.116 102 436.193C101.576 435.352 101.152 434.512 100.715 433.645C89.5602 411.38 79.9224 388.359 71.7577 364.831C71.2322 363.319 70.703 361.807 70.1735 360.295C51.9584 308.116 40.51 253.947 35.2498 198.952C35.1989 198.431 35.148 197.909 35.0955 197.372C34.4924 191.171 34.0501 184.979 33.8113 178.753C33.7672 177.624 33.72 176.495 33.6708 175.367C33.4943 171.289 33.3632 167.214 33.2818 163.133C33.2503 161.78 33.2079 160.427 33.1539 159.075C32.7522 148.487 32.7522 148.487 35.0204 145.446C36.7922 144.237 38.5162 143.454 40.4998 142.645C41.7403 141.91 42.9698 141.157 44.1883 140.387C45.504 139.604 46.8214 138.824 48.1405 138.047C49.2123 137.414 49.2123 137.414 50.3057 136.77C57.9422 132.293 65.6946 128.048 73.4998 123.876C74.1729 123.513 74.8459 123.151 75.5393 122.777C103.244 107.879 132.228 95.6933 162 85.5869C162.873 85.2867 163.747 84.9864 164.647 84.6771C186.578 77.1792 209.005 71.2496 231.703 66.5833C232.299 66.4603 232.895 66.3374 233.509 66.2107C240.126 64.8579 246.742 63.672 253.427 62.7092C254.633 62.5285 255.84 62.3474 257.046 62.1661C259.299 61.8285 261.551 61.5338 263.812 61.2654C269.06 60.5503 272.535 59.6289 276.173 55.5682C277.117 54.3142 278.059 53.0591 279 51.8026C290.117 41.5696 306.868 40.6506 319.5 48.7526ZM291.343 68.8678C289.108 72.0074 288.143 74.7859 288.389 78.6512C289.26 82.7128 291.485 85.9191 294.937 88.2146C298.083 89.7378 301.082 90.011 304.5 89.3408C308.32 87.8138 311.215 85.5303 313.031 81.7979C314.082 78.511 314.146 75.3354 312.952 72.082C310.993 68.3434 308.49 65.8971 304.5 64.5656C299.086 63.9249 295.046 64.7103 291.343 68.8678Z" fill="white"/>
<path d="M350.391 191.304C351.407 191.305 351.407 191.305 352.443 191.305C407.714 191.405 468.487 199.557 519.001 222.977C518.537 229.456 516.882 235.577 515.251 241.837C514.95 243.002 514.651 244.167 514.351 245.332C513.726 247.76 513.098 250.187 512.467 252.614C511.659 255.727 510.855 258.842 510.054 261.957C509.436 264.357 508.817 266.756 508.197 269.155C507.9 270.304 507.603 271.453 507.307 272.602C506.894 274.202 506.479 275.801 506.063 277.399C505.827 278.309 505.591 279.219 505.348 280.157C504.751 282.287 504.751 282.287 504.001 283.788C499.94 282.581 495.889 281.347 491.848 280.076C461.72 270.686 430.914 264.342 399.575 260.738C398.125 260.568 396.675 260.399 395.225 260.228C391.734 259.82 388.242 259.415 384.751 259.013C384.756 259.788 384.756 259.788 384.762 260.578C384.98 291.191 385.147 321.804 385.249 352.417C385.261 356.094 385.273 359.771 385.286 363.448C385.289 364.18 385.291 364.912 385.294 365.667C385.336 377.514 385.159 391.198 385.249 403.046C385.34 415.205 385.229 428.37 385.249 440.53C385.262 448.032 385.169 455.382 385.249 462.884C385.3 468.03 385.249 474.92 385.249 481.361C385.242 484.329 385.196 489.835 385.249 492.803C385.249 503.807 385.901 501.801 382.318 506.214C380.006 508.433 379.428 508.581 375.442 511.717C374.106 512.767 371.225 515.366 369.941 516.478C359.738 524.575 360.861 524.106 354.235 524.267C353.49 524.295 352.744 524.323 351.976 524.352C346.287 523.618 342.266 520.252 338.157 516.478C337.283 515.684 336.406 514.893 335.526 514.106C335.069 513.671 334.611 513.237 334.14 512.789C332.241 511.148 331.434 510.341 329.027 508.278C329.027 508.278 325.933 505.527 322.151 502.776C322.151 493.599 322.015 488.501 322.151 481.361C322.196 478.364 322.159 474.822 322.151 471.825C322.145 466.639 322.092 461.88 322.151 456.693C322.236 449.196 322.138 441.838 322.151 434.34C322.174 422.174 322.052 409.709 322.151 397.543C322.247 385.729 321.763 374.281 321.807 362.466C321.81 361.737 321.804 360.81 321.807 360.059C321.821 356.402 321.794 352.711 321.807 349.054C321.916 318.742 321.516 288.574 321.751 258.263C318.356 258.566 314.962 258.87 311.567 259.176C310.416 259.28 309.264 259.383 308.112 259.486C300.154 260.196 292.239 260.99 284.344 262.251C283.846 262.329 283.348 262.406 282.835 262.487C272.451 264.113 262.205 266.25 252.001 268.773C250.806 269.066 250.806 269.066 249.587 269.365C237.201 272.441 225.209 276.374 213.204 280.675C210.148 281.748 207.076 282.771 204.001 283.788C200.439 271.776 197.044 259.726 193.827 247.617C193.352 245.835 192.874 244.054 192.392 242.273C191.683 239.657 190.985 237.037 190.29 234.417C190.073 233.623 189.856 232.828 189.632 232.01C189.439 231.271 189.245 230.533 189.046 229.773C188.874 229.128 188.701 228.484 188.524 227.82C188.213 225.727 188.388 224.246 189.001 222.226C190.453 221.275 190.453 221.275 192.379 220.592C193.095 220.331 193.811 220.069 194.548 219.799C195.332 219.532 196.115 219.264 196.923 218.988C197.739 218.698 198.555 218.407 199.396 218.108C201.101 217.506 202.809 216.911 204.519 216.323C206.753 215.554 208.976 214.762 211.199 213.962C255.64 198.243 303.372 191.245 350.391 191.304Z" fill="white"/>
<path d="M590.458 180.242C591.025 180.453 591.592 180.665 592.177 180.883C596.061 182.341 596.061 182.341 597.75 183.186C598.887 247.983 579.211 313.273 552.888 371.902C551.583 374.809 550.291 377.723 549 380.637C544.838 380.243 541.857 378.676 538.265 376.695C537.014 376.02 535.762 375.346 534.51 374.672C533.835 374.307 533.159 373.942 532.464 373.565C528.325 371.347 524.152 369.192 519.984 367.029C518.356 366.183 516.728 365.336 515.1 364.49C513.9 363.866 512.7 363.242 511.5 362.619C511.913 360.268 512.425 358.235 513.457 356.085C513.709 355.548 513.96 355.011 514.219 354.458C514.498 353.869 514.776 353.279 515.062 352.671C535.601 307.838 547.898 260.379 555 211.715C554.1 211.537 553.2 211.359 552.272 211.176C547.865 210.194 543.63 208.752 539.351 207.321C528.78 203.787 443.859 173.667 347.248 173.667C252.7 173.667 181.79 194.301 155.532 209.516C153.75 210.214 153.75 210.214 152.25 210.214C157.025 246.946 164.062 283.844 179.475 317.743C180 319.074 180 319.074 180 320.576C180.588 320.607 181.175 320.638 181.781 320.67C189.411 322.513 196.055 328.204 200.118 334.814C204.793 343.799 206.337 352.369 203.578 362.337C200.439 371.413 195.325 378.222 186.65 382.564C177.207 386.64 168.034 387.148 158.25 383.64C149.178 379.479 143.074 372.634 139.5 363.369C137.91 358.11 136.994 352.284 138.678 346.962C141.121 339.035 139.25 333.697 136.361 326.193C135.062 322.812 133.859 319.397 132.641 315.986C132.393 315.297 132.144 314.607 131.888 313.897C129.546 307.362 127.547 300.759 125.719 294.065C125.569 293.517 125.419 292.969 125.265 292.405C118.156 266.182 112.913 239.516 110.25 212.466C110.1 210.995 110.1 210.995 109.948 209.495C109.256 201.498 109.429 193.458 109.5 185.438C147.995 162.788 225.539 129.993 370.284 133.088C487.523 142.029 528.78 157.247 590.458 180.242ZM160.96 345.251C159.136 348.543 158.46 351.325 159 355.111C160.311 359.392 162.413 362.072 166.339 364.237C170.117 365.678 173.428 365.329 177.187 364.026C180.322 361.887 182.526 359.536 183.75 355.862C184.223 351.855 184.058 348.449 181.79 345.031C178.958 341.813 175.682 339.902 171.375 339.626C167.028 339.912 163.567 341.737 160.96 345.251Z" fill="white"/>
</svg>
