<svg fill="#FFFFFF" xmlns="http://www.w3.org/2000/svg"  viewBox="0 0 24 24" width="24px" height="24px"><path d="M 20.455078 5.4121094 C 20.104078 5.4121094 19.769219 5.4528281 19.449219 5.5488281 C 19.130219 5.6448281 18.858141 5.7808437 18.619141 5.9648438 C 18.380141 6.1408438 18.188922 6.3631406 18.044922 6.6191406 C 17.900922 6.8741406 17.828125 7.1708594 17.828125 7.5058594 C 17.828125 7.9208594 17.963562 8.3111094 18.226562 8.6621094 C 18.489563 9.0211094 18.920906 9.2935625 19.503906 9.4765625 L 20.660156 9.8359375 C 21.051156 9.9639375 21.322797 10.098 21.466797 10.25 C 21.610797 10.402 21.681641 10.584594 21.681641 10.808594 C 21.681641 11.135594 21.538578 11.391406 21.267578 11.566406 C 20.996578 11.742406 20.603562 11.830078 20.101562 11.830078 C 19.782563 11.830078 19.471344 11.798375 19.152344 11.734375 C 18.841344 11.670375 18.544438 11.574078 18.273438 11.455078 C 18.193438 11.423078 18.122219 11.391 18.074219 11.375 C 18.026219 11.359 17.977687 11.351563 17.929688 11.351562 C 17.809687 11.351562 17.746094 11.430656 17.746094 11.597656 L 17.746094 12.005859 C 17.746094 12.077859 17.762922 12.157516 17.794922 12.228516 C 17.827922 12.303516 17.915969 12.381125 18.042969 12.453125 C 18.250969 12.573125 18.561937 12.677438 18.960938 12.773438 C 19.359938 12.869438 19.774453 12.917969 20.189453 12.917969 C 20.596453 12.917969 20.971078 12.860047 21.330078 12.748047 C 21.673078 12.644047 21.969797 12.502734 22.216797 12.302734 C 22.463797 12.110734 22.654828 11.870609 22.798828 11.599609 C 22.934828 11.328609 23.007813 11.016828 23.007812 10.673828 C 23.007812 10.258828 22.887625 9.8836406 22.640625 9.5566406 C 22.393625 9.2296406 21.977344 8.9740156 21.402344 8.7910156 L 20.269531 8.4316406 C 19.846531 8.2956406 19.552578 8.1441875 19.392578 7.9921875 C 19.232578 7.8401875 19.152344 7.6497812 19.152344 7.4257812 C 19.152344 7.0987813 19.280344 6.8677969 19.527344 6.7167969 C 19.774344 6.5647969 20.134844 6.4921875 20.589844 6.4921875 C 21.156844 6.4921875 21.668047 6.5976875 22.123047 6.8046875 C 22.259047 6.8686875 22.361781 6.9003906 22.425781 6.9003906 C 22.545781 6.9003906 22.609375 6.8115313 22.609375 6.6445312 L 22.609375 6.2675781 C 22.609375 6.1555781 22.585109 6.0688594 22.537109 6.0058594 C 22.489109 5.9338594 22.409828 5.8686875 22.298828 5.8046875 C 22.218828 5.7566875 22.107844 5.7081563 21.964844 5.6601562 C 21.820844 5.6121562 21.669766 5.5732031 21.509766 5.5332031 C 21.341766 5.5012031 21.174234 5.4693125 20.990234 5.4453125 C 20.814234 5.4213125 20.631078 5.4121094 20.455078 5.4121094 z M 3.9941406 5.4296875 C 3.5551406 5.4296875 3.1390469 5.4780312 2.7480469 5.5820312 C 2.3560469 5.6770313 2.0211875 5.7974062 1.7421875 5.9414062 C 1.6301875 5.9974063 1.5595313 6.0524219 1.5195312 6.1074219 C 1.4795312 6.1634219 1.4628906 6.2606719 1.4628906 6.3886719 L 1.4628906 6.7792969 C 1.4628906 6.9472969 1.5188594 7.0253906 1.6308594 7.0253906 C 1.6628594 7.0253906 1.7037656 7.0179531 1.7597656 7.0019531 C 1.8147656 6.9859531 1.9091094 6.9544375 2.0371094 6.8984375 C 2.3161094 6.7864375 2.6053906 6.6999062 2.9003906 6.6289062 C 3.1953906 6.5569062 3.4827188 6.5234375 3.7617188 6.5234375 C 4.3767188 6.5234375 4.8075 6.643625 5.0625 6.890625 C 5.3095 7.137625 5.4375 7.5609688 5.4375 8.1679688 L 5.4375 8.7519531 C 5.1185 8.6799531 4.8155313 8.6142188 4.5195312 8.5742188 C 4.2245313 8.5342188 3.9448281 8.5117188 3.6738281 8.5117188 C 2.8518281 8.5117188 2.20575 8.7197656 1.71875 9.1347656 C 1.23275 9.5497656 0.9921875 10.099344 0.9921875 10.777344 C 0.9921875 11.416344 1.1910313 11.926547 1.5820312 12.310547 C 1.9730313 12.693547 2.5096875 12.886719 3.1796875 12.886719 C 4.1216875 12.886719 4.9023906 12.518203 5.5253906 11.783203 C 5.6133906 11.967203 5.6944375 12.119859 5.7734375 12.255859 C 5.8534375 12.383859 5.9495469 12.510859 6.0605469 12.630859 C 6.1405469 12.702859 6.2198281 12.742188 6.2988281 12.742188 C 6.3628281 12.742188 6.4358125 12.717922 6.5078125 12.669922 L 7.0097656 12.335938 C 7.1137656 12.255937 7.1621094 12.174703 7.1621094 12.095703 C 7.1621094 12.039703 7.1454688 11.976109 7.1054688 11.912109 C 6.9934687 11.704109 6.9145625 11.513891 6.8515625 11.337891 C 6.7955625 11.161891 6.7636719 10.921953 6.7636719 10.626953 L 6.7460938 10.626953 L 6.7460938 8.0390625 C 6.7460938 7.1610625 6.5239844 6.5071719 6.0839844 6.0761719 C 5.6379844 5.6461719 4.9441406 5.4296875 3.9941406 5.4296875 z M 7.7050781 5.6210938 C 7.5770781 5.6210938 7.5136719 5.6942656 7.5136719 5.8222656 C 7.5136719 5.8782656 7.5379375 5.981625 7.5859375 6.140625 L 9.4609375 12.310547 C 9.5089375 12.462547 9.5649062 12.573094 9.6289062 12.621094 C 9.6929063 12.677094 9.7886406 12.701172 9.9316406 12.701172 L 10.617188 12.701172 C 10.761188 12.701172 10.8735 12.677094 10.9375 12.621094 C 11.0015 12.565094 11.049844 12.461734 11.089844 12.302734 L 12.318359 7.1621094 L 13.554688 12.310547 C 13.586688 12.470547 13.643031 12.574859 13.707031 12.630859 C 13.771031 12.686859 13.874391 12.710937 14.025391 12.710938 L 14.712891 12.710938 C 14.848891 12.710938 14.951625 12.678859 15.015625 12.630859 C 15.079625 12.582859 15.135594 12.477359 15.183594 12.318359 L 17.107422 6.1484375 C 17.139422 6.0604375 17.154109 5.9972188 17.162109 5.9492188 C 17.170109 5.9012187 17.179688 5.8603125 17.179688 5.8203125 C 17.179688 5.6843125 17.106516 5.6210937 16.978516 5.6210938 L 16.236328 5.6210938 C 16.092328 5.6210938 15.989781 5.6531719 15.925781 5.7011719 C 15.869781 5.7491719 15.813625 5.8527188 15.765625 6.0117188 L 14.384766 11.359375 L 13.123047 6.0117188 C 13.091047 5.8597187 13.036656 5.7491719 12.972656 5.7011719 C 12.908656 5.6451719 12.803344 5.6210938 12.652344 5.6210938 L 12.013672 5.6210938 C 11.869672 5.6210938 11.759313 5.6531719 11.695312 5.7011719 C 11.631312 5.7491719 11.582969 5.8527188 11.542969 6.0117188 L 10.300781 11.296875 L 8.9589844 6.0136719 C 8.9109844 5.8616719 8.8628281 5.7491719 8.7988281 5.7011719 C 8.7428281 5.6451719 8.6392812 5.6210938 8.4882812 5.6210938 L 7.7050781 5.6210938 z M 3.9707031 9.4609375 C 4.2177031 9.4609375 4.4657031 9.4777656 4.7207031 9.5097656 C 4.9757031 9.5417656 5.222125 9.5885312 5.453125 9.6445312 L 5.453125 9.9804688 C 5.453125 10.251469 5.4210469 10.482828 5.3730469 10.673828 C 5.3250469 10.865828 5.2305156 11.033547 5.1035156 11.185547 C 4.8875156 11.424547 4.6327031 11.599312 4.3457031 11.695312 C 4.0587031 11.791313 3.7864375 11.839844 3.5234375 11.839844 C 3.1564375 11.839844 2.8765469 11.743922 2.6855469 11.544922 C 2.4855469 11.352922 2.390625 11.074219 2.390625 10.699219 C 2.390625 10.300219 2.51825 9.99725 2.78125 9.78125 C 3.04425 9.56525 3.4357031 9.4609375 3.9707031 9.4609375 z M 22.236328 14.361328 C 21.396203 14.373203 20.404297 14.560891 19.654297 15.087891 C 19.423297 15.255891 19.46275 15.479266 19.71875 15.447266 C 20.57275 15.343266 22.457969 15.119781 22.792969 15.550781 C 23.127969 15.973781 22.416656 17.754922 22.097656 18.544922 C 22.001656 18.783922 22.210781 18.878312 22.425781 18.695312 C 23.829781 17.514312 24.195203 15.048453 23.908203 14.689453 C 23.764703 14.513953 23.076453 14.349453 22.236328 14.361328 z M 0.17578125 14.837891 C -4.6875e-05 14.859594 -0.078578125 15.072984 0.10742188 15.240234 C 3.2364219 18.066234 7.3795625 19.765625 11.976562 19.765625 C 15.257563 19.765625 19.071266 18.735875 21.697266 16.796875 C 22.128266 16.476875 21.753453 15.989453 21.314453 16.189453 C 18.369453 17.434453 15.169859 18.042969 12.255859 18.042969 C 7.9378594 18.042969 3.7629062 16.852672 0.37890625 14.888672 C 0.30515625 14.844672 0.23439062 14.830656 0.17578125 14.837891 z"/></svg>