<?xml version="1.0" encoding="UTF-8"?>
<!-- Generator: Adobe Illustrator 26.3.1, SVG Export Plug-In . SVG Version: 6.00 Build 0)  -->
<svg version="1.1" id="Layer_1" xmlns="http://www.w3.org/2000/svg" xmlns:xlink="http://www.w3.org/1999/xlink" x="0px" y="0px" viewBox="0 0 86 59" style="enable-background:new 0 0 86 59;" xml:space="preserve">
<style type="text/css">
	.st0{fill:#FF8200;}
</style>
<g>
	<rect x="49" y="58" class="st0" width="1" height="1"/>
	<rect x="47" y="58" class="st0" width="1" height="1"/>
	<rect x="48" y="57" class="st0" width="1" height="1"/>
	<rect x="46" y="57" class="st0" width="1" height="1"/>
	<rect x="44" y="57" class="st0" width="1" height="1"/>
	<rect x="45" y="56" class="st0" width="1" height="1"/>
	<rect x="43" y="56" class="st0" width="1" height="1"/>
	<rect x="42" y="55" class="st0" width="1" height="1"/>
	<path class="st0" d="M58,41c-0.9,0-2.1,0-3,0v1c1.6,0,3.4,0,5,0v-1C59.5,41,58.5,41,58,41z"/>
	<path class="st0" d="M28,41h-1v1c0.5,0,1.5,0,2,0v-1H28z"/>
	<rect x="8" y="41" class="st0" width="1" height="1"/>
	<rect x="6" y="41" class="st0" width="1" height="1"/>
	<rect x="4" y="41" class="st0" width="1" height="1"/>
	<path class="st0" d="M62,40h-1v-1c-0.5,0-1.5,0-2,0v1h1v1c1.2,0,2.8,0,4,0v-1C63.5,40,62.5,40,62,40z"/>
	<rect x="26" y="40" class="st0" width="1" height="1"/>
	<rect x="9" y="40" class="st0" width="1" height="1"/>
	<rect x="7" y="40" class="st0" width="1" height="1"/>
	<rect x="5" y="40" class="st0" width="1" height="1"/>
	<rect x="3" y="40" class="st0" width="1" height="1"/>
	<path class="st0" d="M65,39h-1v1c0.9,0,2.1,0,3,0v-1C66.5,39,65.5,39,65,39z"/>
	<rect x="10" y="39" class="st0" width="1" height="1"/>
	<rect x="8" y="39" class="st0" width="1" height="1"/>
	<rect x="6" y="39" class="st0" width="1" height="1"/>
	<rect x="4" y="39" class="st0" width="1" height="1"/>
	<rect x="2" y="39" class="st0" width="1" height="1"/>
	<path class="st0" d="M67,38v1c0.5,0,1.5,0,2,0v-1C68.5,38,67.5,38,67,38z"/>
	<path class="st0" d="M58,39h1v-1c-0.5,0-1.5,0-2,0v1H58z"/>
	<rect x="9" y="38" class="st0" width="1" height="1"/>
	<rect x="7" y="38" class="st0" width="1" height="1"/>
	<rect x="5" y="38" class="st0" width="1" height="1"/>
	<rect x="3" y="38" class="st0" width="1" height="1"/>
	<rect x="1" y="38" class="st0" width="1" height="1"/>
	<rect x="8" y="37" class="st0" width="1" height="1"/>
	<rect x="6" y="37" class="st0" width="1" height="1"/>
	<rect x="4" y="37" class="st0" width="1" height="1"/>
	<rect x="2" y="37" class="st0" width="1" height="1"/>
	<rect x="7" y="36" class="st0" width="1" height="1"/>
	<rect x="5" y="36" class="st0" width="1" height="1"/>
	<rect x="3" y="36" class="st0" width="1" height="1"/>
	<rect x="1" y="36" class="st0" width="1" height="1"/>
	<path class="st0" d="M12,35c0,0.5,0,1.5,0,2h-1v-1h-1v-1H9c0-0.5,0-1.5,0-2H8v1H7v1h1v1h1v1h1v1h1v1h1v1h1c0-0.9,0-2.1,0-3h1   c0-0.5,0-1.5,0-2C13.5,35,12.5,35,12,35z"/>
	<rect x="6" y="35" class="st0" width="1" height="1"/>
	<rect x="4" y="35" class="st0" width="1" height="1"/>
	<rect x="2" y="35" class="st0" width="1" height="1"/>
	<rect x="11" y="34" class="st0" width="1" height="1"/>
	<rect x="5" y="34" class="st0" width="1" height="1"/>
	<rect x="3" y="34" class="st0" width="1" height="1"/>
	<rect x="1" y="34" class="st0" width="1" height="1"/>
	<path class="st0" d="M17,34v-1c0.9,0,2.1,0,3,0v-1c2,0,4,0,6,0v-1h-1c0-1.6,0-3.4,0-5h-1c0-0.5,0-1.5,0-2h-1v-1c-0.5,0-1.5,0-2,0   v-1c-1.6,0-3.4,0-5,0v1c-0.5,0-1.5,0-2,0v1h-1c0,0.5,0,1.5,0,2h-1c0,1.6,0,3.4,0,5h1c0,0.5,0,1.5,0,2h1c0,0.5,0,1.5,0,2h1v-1   C15.5,34,16.5,34,17,34z M16,27v-1c0.5,0,1.5,0,2,0c0,0.5,0,1.5,0,2c-0.5,0-1.5,0-2,0V27z"/>
	<rect x="6" y="33" class="st0" width="1" height="1"/>
	<rect x="4" y="33" class="st0" width="1" height="1"/>
	<rect x="2" y="33" class="st0" width="1" height="1"/>
	<path class="st0" d="M11,32h-1c0,0.5,0,1.5,0,2h1C11,33.5,11,32.5,11,32z"/>
	<path class="st0" d="M7,33h1c0-3,0-6,0-9H7c0,2.3,0,4.7,0,7H6v1h1V33z"/>
	<rect x="5" y="32" class="st0" width="1" height="1"/>
	<rect x="3" y="32" class="st0" width="1" height="1"/>
	<rect x="4" y="31" class="st0" width="1" height="1"/>
	<path class="st0" d="M30,30c0-2,0-4,0-6h-1c0,2.3,0,4.7,0,7c0.9,0,2.1,0,3,0v-1C31.5,30,30.5,30,30,30z"/>
	<path class="st0" d="M10,30c0-1.6,0-3.4,0-5H9c0,2.3,0,4.7,0,7h1C10,31.5,10,30.5,10,30z"/>
	<path class="st0" d="M32,29v1c0.5,0,1.5,0,2,0v-1C33.5,29,32.5,29,32,29z"/>
	<path class="st0" d="M34,28v1c0.5,0,1.5,0,2,0v-1C35.5,28,34.5,28,34,28z"/>
	<path class="st0" d="M36,27v1c0.5,0,1.5,0,2,0v-1C37.5,27,36.5,27,36,27z"/>
	<path class="st0" d="M38,26v1c0.5,0,1.5,0,2,0v-1C39.5,26,38.5,26,38,26z"/>
	<path class="st0" d="M27,27c0,1.6,0,3.4,0,5h-1v1c0.5,0,1.5,0,2,0c0-2.6,0-5.4,0-8h-1C27,25.5,27,26.5,27,27z"/>
	<rect x="40" y="25" class="st0" width="1" height="1"/>
	<path class="st0" d="M41,24v1c0.5,0,1.5,0,2,0v-1C42.5,24,41.5,24,41,24z"/>
	<path class="st0" d="M26,25h1c0-0.5,0-1.5,0-2h-1C26,23.5,26,24.5,26,25z"/>
	<path class="st0" d="M11,24v-1h-1c0,0.5,0,1.5,0,2h1V24z"/>
	<rect x="43" y="23" class="st0" width="1" height="1"/>
	<path class="st0" d="M9,23v-1H8c0,0.5,0,1.5,0,2h1V23z"/>
	<path class="st0" d="M44,22v1c0.5,0,1.5,0,2,0v-1C45.5,22,44.5,22,44,22z"/>
	<path class="st0" d="M37,22c-0.5,0-1.5,0-2,0v1c1.2,0,2.8,0,4,0v-1C38.5,22,37.5,22,37,22z"/>
	<path class="st0" d="M29,22h-1c0,0.5,0,1.5,0,2h1C29,23.5,29,22.5,29,22z"/>
	<rect x="25" y="22" class="st0" width="1" height="1"/>
	<rect x="11" y="22" class="st0" width="1" height="1"/>
	<rect x="46" y="21" class="st0" width="1" height="1"/>
	<path class="st0" d="M39,21v1c0.5,0,1.5,0,2,0v-1C40.5,21,39.5,21,39,21z"/>
	<rect x="34" y="21" class="st0" width="1" height="1"/>
	<rect x="27" y="21" class="st0" width="1" height="1"/>
	<rect x="24" y="21" class="st0" width="1" height="1"/>
	<rect x="12" y="21" class="st0" width="1" height="1"/>
	<rect x="9" y="21" class="st0" width="1" height="1"/>
	<path class="st0" d="M47,20v1c0.5,0,1.5,0,2,0v-1C48.5,20,47.5,20,47,20z"/>
	<path class="st0" d="M41,20v1c0.5,0,1.5,0,2,0v-1C42.5,20,41.5,20,41,20z"/>
	<rect x="33" y="20" class="st0" width="1" height="1"/>
	<rect x="26" y="20" class="st0" width="1" height="1"/>
	<path class="st0" d="M23,21h1v-1c-0.5,0-1.5,0-2,0v1H23z"/>
	<path class="st0" d="M15,21v-1c-0.5,0-1.5,0-2,0v1C13.5,21,14.5,21,15,21z"/>
	<rect x="10" y="20" class="st0" width="1" height="1"/>
	<rect x="49" y="19" class="st0" width="1" height="1"/>
	<rect x="43" y="19" class="st0" width="1" height="1"/>
	<path class="st0" d="M17,20c1.6,0,3.4,0,5,0v-1c-2.3,0-4.7,0-7,0v1C15.5,20,16.5,20,17,20z"/>
	<rect x="11" y="19" class="st0" width="1" height="1"/>
	<path class="st0" d="M44,18v1c0.5,0,1.5,0,2,0v-1C45.5,18,44.5,18,44,18z"/>
	<rect x="39" y="18" class="st0" width="1" height="1"/>
	<path class="st0" d="M33,18v-1h-1c0,0.9,0,2.1,0,3h1C33,19.5,33,18.5,33,18z"/>
	<path class="st0" d="M14,19v-1c-0.5,0-1.5,0-2,0v1C12.5,19,13.5,19,14,19z"/>
	<rect x="46" y="17" class="st0" width="1" height="1"/>
	<rect x="38" y="17" class="st0" width="1" height="1"/>
	<path class="st0" d="M16,18c2.3,0,4.7,0,7,0v1c0.5,0,1.5,0,2,0v1h1v-1h1c0-0.5,0-1.5,0-2h-1v1h-1v-1h-1v-1h-1v1c-3,0-6,0-9,0v1   C14.5,18,15.5,18,16,18z"/>
	<rect x="42" y="16" class="st0" width="1" height="1"/>
	<rect x="37" y="16" class="st0" width="1" height="1"/>
	<path class="st0" d="M34,16v-1h-1c0,0.5,0,1.5,0,2h1V16z"/>
	<path class="st0" d="M28,16v-1h1c0-0.5,0-1.5,0-2h-1v1h-1v1h-1v1h1v1h1V16z"/>
	<rect x="25" y="16" class="st0" width="1" height="1"/>
	<rect x="41" y="15" class="st0" width="1" height="1"/>
	<rect x="24" y="15" class="st0" width="1" height="1"/>
	<rect x="45" y="14" class="st0" width="1" height="1"/>
	<rect x="40" y="14" class="st0" width="1" height="1"/>
	<rect x="34" y="14" class="st0" width="1" height="1"/>
	<rect x="25" y="14" class="st0" width="1" height="1"/>
	<rect x="44" y="13" class="st0" width="1" height="1"/>
	<rect x="39" y="13" class="st0" width="1" height="1"/>
	<rect x="35" y="13" class="st0" width="1" height="1"/>
	<rect x="26" y="13" class="st0" width="1" height="1"/>
	<rect x="24" y="13" class="st0" width="1" height="1"/>
	<rect x="43" y="12" class="st0" width="1" height="1"/>
	<rect x="36" y="12" class="st0" width="1" height="1"/>
	<rect x="29" y="12" class="st0" width="1" height="1"/>
	<rect x="27" y="12" class="st0" width="1" height="1"/>
	<rect x="25" y="12" class="st0" width="1" height="1"/>
	<path class="st0" d="M73,12v1h1c0,0.5,0,1.5,0,2c0.5,0,1.5,0,2,0c0-0.9,0-2.1,0-3h-1v-1h-1v-1c-0.9,0-2.1,0-3,0c0,0.5,0,1.5,0,2   C71.5,12,72.5,12,73,12z"/>
	<rect x="42" y="11" class="st0" width="1" height="1"/>
	<rect x="37" y="11" class="st0" width="1" height="1"/>
	<rect x="28" y="11" class="st0" width="1" height="1"/>
	<rect x="26" y="11" class="st0" width="1" height="1"/>
	<rect x="38" y="10" class="st0" width="1" height="1"/>
	<polygon class="st0" points="30,11 30,12 31,12 31,11 32,11 32,10 31,10 31,9 30,9 30,10 29,10 29,11  "/>
	<path class="st0" d="M28,10h1V9c-0.9,0-2.1,0-3,0v1h1v1h1V10z"/>
	<rect x="39" y="9" class="st0" width="1" height="1"/>
	<rect x="32" y="9" class="st0" width="1" height="1"/>
	<rect x="33" y="8" class="st0" width="1" height="1"/>
	<rect x="31" y="8" class="st0" width="1" height="1"/>
	<path class="st0" d="M25,8c-0.5,0-1.5,0-2,0v1c0.9,0,2.1,0,3,0V8H25z"/>
	<rect x="34" y="7" class="st0" width="1" height="1"/>
	<rect x="32" y="7" class="st0" width="1" height="1"/>
	<path class="st0" d="M22,7c-2.3,0-4.7,0-7,0V6c1.2,0,2.8,0,4,0V5c4.3,0,8.7,0,13,0v1h1v1h1V6h1v1c1.6,0,3.4,0,5,0c0,0.5,0,1.5,0,2   c1.2,0,2.8,0,4,0v1h1v1h1v1h1v1h1c0,0.9,0,2.1,0,3h-1v1c0.9,0,2.1,0,3,0c0,0.5,0,1.5,0,2c0.5,0,1.5,0,2,0v-1c0.5,0,1.5,0,2,0v-1   c0.5,0,1.5,0,2,0v-1c0.5,0,1.5,0,2,0v-1c2.3,0,4.7,0,7,0v1c0.9,0,2.1,0,3,0v1h1v1c-1.2,0-2.8,0-4,0v1c-0.9,0-2.1,0-3,0v1   c-0.5,0-1.5,0-2,0v1c-0.5,0-1.5,0-2,0v1h-1v1h-1v1h-1v1h-1v1h-1v1h-1v1h-1v1h-1v1h-1v1h-1v1h-1v1h-1v1h-1v1h-1v1h-1v1h-1v1h-1v1   c-0.5,0-1.5,0-2,0v1c-0.5,0-1.5,0-2,0v1c-0.9,0-2.1,0-3,0v1c-1.6,0-3.4,0-5,0v1c8.7,0,17.3,0,26,0v-1c-4,0-8,0-12,0   c0-0.5,0-1.5,0-2h1v-1h1v-1h1v-1c2.3,0,4.7,0,7,0v1c1.2,0,2.8,0,4,0v-1c4,0,8,0,12,0v1c0.5,0,1.5,0,2,0c0,0.9,0,2.1,0,3h-1v1h-1v1   h-1v1h-1v1c-0.5,0-1.5,0-2,0v1c-0.9,0-2.1,0-3,0v1c-0.9,0-2.1,0-3,0v1c-0.9,0-2.1,0-3,0v1c-1.2,0-2.8,0-4,0v1c-1.2,0-2.8,0-4,0v1   c-0.9,0-2.1,0-3,0v1c-0.5,0-1.5,0-2,0v1c-0.5,0-1.5,0-2,0c0,0.5,0,1.5,0,2h1v-1h1v1h1v1h1v-1h1v1h1v1h1v-1h1v1h1v1h1v1   c0.5,0,1.5,0,2,0c0-0.9,0-2.1,0-3h-1c0-1.2,0-2.8,0-4h1c0-0.5,0-1.5,0-2c1.2,0,2.8,0,4,0v-1c0.9,0,2.1,0,3,0v-1c0.9,0,2.1,0,3,0v-1   c0.9,0,2.1,0,3,0v-1c0.5,0,1.5,0,2,0v-1h1v-1h1v-1h1v-1h1c0-1.6,0-3.4,0-5h-1v-1c-5.7,0-11.3,0-17,0v-1h1v-1h1v-1h1v-1h1v-1h1v-1h1   v-1h1v-1h1v-1h1v-1h1v-1h1v-1h1v-1h1v-1h1v-1h1v-1h1c0-1.2,0-2.8,0-4h-1v-1c-0.9,0-2.1,0-3,0v-1c-3,0-6,0-9,0v1c-0.5,0-1.5,0-2,0v1   c-0.5,0-1.5,0-2,0v1c-0.5,0-1.5,0-2,0v-1h-1c0-0.5,0-1.5,0-2h-1c0-0.5,0-1.5,0-2h-1v-1h-1v-1h-1V9h-1V8c-0.5,0-1.5,0-2,0V7   c-0.5,0-1.5,0-2,0V6c-0.9,0-2.1,0-3,0V5c-1.6,0-3.4,0-5,0V4c-5,0-10,0-15,0v1c-1.2,0-2.8,0-4,0v1c-0.9,0-2.1,0-3,0v1h-1v1   C9.5,8,8.5,8,8,8v1C7.5,9,6.5,9,6,9v1H5v1H4v1H3v1H2v1H1c0,0.5,0,1.5,0,2H0c0,0.9,0,2.1,0,3h1c0-0.5,0-1.5,0-2h1c0-0.5,0-1.5,0-2h1   v-1h1v-1h1v-1h1v-1h1v-1c0.5,0,1.5,0,2,0V9c0.5,0,1.5,0,2,0V8c4,0,8,0,12,0V7H22z"/>
	<path class="st0" d="M73,7v1c0.5,0,1.5,0,2,0v1h1v1h1v1h1c0,0.5,0,1.5,0,2h1c0,0.5,0,1.5,0,2c0.5,0,1.5,0,2,0c0-0.9,0-2.1,0-3h-1   c0-0.5,0-1.5,0-2h-1V9h-1V8h-1V7h-1V6c-0.5,0-1.5,0-2,0V5c-0.9,0-2.1,0-3,0c0,0.5,0,1.5,0,2C71.5,7,72.5,7,73,7z"/>
	<path class="st0" d="M73,2h1v1c0.5,0,1.5,0,2,0v1c0.5,0,1.5,0,2,0v1h1v1h1v1h1v1h1c0,0.5,0,1.5,0,2h1c0,0.5,0,1.5,0,2h1   c0,0.9,0,2.1,0,3c0.5,0,1.5,0,2,0c0-1.2,0-2.8,0-4h-1c0-0.5,0-1.5,0-2h-1c0-0.5,0-1.5,0-2h-1V6h-1V5h-1V4h-1V3h-1V2   c-0.5,0-1.5,0-2,0V1c-0.5,0-1.5,0-2,0V0c-1.2,0-2.8,0-4,0c0,0.5,0,1.5,0,2C71.5,2,72.5,2,73,2z"/>
</g>
</svg>