<svg xmlns="http://www.w3.org/2000/svg" width="129" height="48" fill="none" viewBox="0 0 129 48">
    <mask id="j5ajukoona" width="107" height="48" x="22" y="0" maskUnits="userSpaceOnUse">
        <path fill="#fff" d="M22.283 48H128.42V0H22.283v48z"/>
    </mask>
    <g fill-rule="evenodd" clip-rule="evenodd" mask="url(#j5ajukoona)">
        <path fill="#151317" d="M127.113 23.996c-6.444 13.242-34.946 24.022-63.446 24.022-28.528 0-46.52-10.78-40.076-24.022C30.01 10.806 58.536 0 87.04 0c28.527 0 46.515 10.806 40.074 23.996z"/>
        <path fill="#647387" d="M85.982 1.208c27.368 0 44.63 10.108 38.448 22.447-6.182 12.387-33.527 22.472-60.87 22.472-27.369 0-44.63-10.085-38.447-22.472C31.27 11.315 58.638 1.208 85.982 1.208z"/>
    </g>
    <path fill="#151317" fill-rule="evenodd" d="M81.62 3.317c24.725 0 40.288 9.04 34.664 20.095-5.601 11.078-30.35 20.12-55.027 20.12-24.726 0-40.29-9.042-34.689-20.12 3.636-7.126 15.15-13.381 29.477-16.968 1.018-.268 2.06-.485 3.103-.728 7.127-1.526 14.811-2.4 22.471-2.4z" clip-rule="evenodd"/>
    <path fill="#1254FF" fill-rule="evenodd" d="M113.973 14.357c1.229 2.014 1.457 4.28.483 6.656-.911 1.799-1.957 3.247-3.515 4.671-8.083 7.366-26.272 12.859-44.436 12.859-21.417 0-34.923-7.633-30.044-16.99C39.813 15.11 51.175 9.252 64.78 6.36c1.6-.34 3.227-.607 4.878-.85-3.201.316-6.333.777-9.412 1.433-15.084 3.282-27.875 8.582-31.598 15.922C23.25 33.536 38.21 42.237 61.97 42.237c19.468 0 38.964-5.833 48.329-13.83 1.058-.898 2.296-2.166 3.267-3.518.401-.546.753-1.1 1.046-1.659 1.676-3.209 1.356-6.247-.64-8.873z" clip-rule="evenodd"/>
    <path fill="#363A3F" fill-rule="evenodd" d="M14.33 21.768c-.438.689-.878 1.197-1.307 1.512l-.017.013c-.495.39-1.143.587-1.927.587-.51 0-.859-.102-.956-.274-.01-.027-.24-.66.469-2.943.469-1.447 1.015-2.48 1.624-3.072.756-.757 1.567-1.109 2.552-1.109.31 0 .567.048.724.134.117.067.21.119.246.545l.144 1.667h7.858c-.493.654-.915 1.358-1.254 2.096h-7.619l-.537.844zm19.05.485c-.292.933-.67 1.611-1.092 1.959-.43.345-.793.499-1.174.499-.08 0-.13-.007-.16-.014-.016-.103-.041-.469.221-1.305.25-.851.619-1.498 1.063-1.87.408-.325.785-.47 1.223-.47.053 0 .091.003.118.006.016.116.026.46-.198 1.195zm18.768-.019c-.242.824-.566 1.439-.913 1.73-.284.24-.523.355-.732.355l-.058-.001c.005-.144.038-.432.187-.914.324-1.056.69-1.51.94-1.704.287-.233.533-.356.792-.392-.015.175-.066.465-.21.907l-.006.019zm55.221-8.201l2.084-6.68-10.712 4.443-.274.114-.661 2.123h-2.124l-.087.278c-.896-.4-1.78-.596-2.701-.596-.723 0-1.409.107-2.04.318h-8.39l-1.587 5.071c.002-.207-.004-.42-.018-.634-.075-1.1-.462-2.076-1.088-2.744-.78-.892-1.881-1.467-3.271-1.71-1.03-.205-2.428-.3-4.399-.3-1.153 0-2.241.077-3.328.239-1.229.19-2.13.439-2.836.783-1.046.453-1.913 1.005-2.576 1.64-.584.532-1.118 1.21-1.631 2.07-.105-.538-.266-1.057-.48-1.544-.679-1.454-2.209-3.189-5.64-3.189-.847 0-1.647.107-2.442.326l.002-.008h-9.163l-1.319 4.214c-.153-.436-.354-.86-.6-1.26-1.38-2.171-3.929-3.272-7.576-3.272-2.992 0-5.655.802-7.914 2.383-.416.293-.815.607-1.186.934v-.027c0-3.108-.844-5.307-2.58-6.722-1.512-1.29-3.742-1.918-6.817-1.918-3.669 0-6.898.988-9.598 2.938C3.73 13.26 1.82 16.047.739 19.587c-.875 2.765-.974 5.137-.292 7.054.73 2.001 1.939 3.427 3.591 4.238 1.485.742 3.509 1.118 6.015 1.118 2.085 0 3.908-.292 5.42-.87 1.526-.554 2.97-1.42 4.295-2.572.605-.544 1.27-1.264 1.877-2.033.324 1.505 1.113 2.568 1.724 3.2 1.493 1.493 3.712 2.25 6.598 2.25 3.031 0 5.726-.808 8.008-2.405.566-.396 1.095-.832 1.575-1.296l-2.72 8.687h9.586l1.737-5.515c.836.352 1.799.53 2.863.53 2.232 0 4.32-.747 6.207-2.22.539-.424 1.046-.911 1.508-1.45.17.695.51 1.327 1.01 1.881 1.053 1.204 2.707 1.789 5.055 1.789 1.55 0 3.001-.232 4.316-.69.216-.076.437-.163.658-.26l.21.631h16.532l1.867-5.967c.777-2.47 1.489-3.457 1.843-3.824.341-.305.57-.347.766-.347.023 0 .235.007.753.235l1.289.57.612-.738 1.803.004-.792 2.529c-.618 1.883-.827 3.226-.656 4.226.179 1.223.838 2.235 1.856 2.85.87.533 2.127.78 3.957.78 1.335 0 2.824-.158 4.429-.472l.779-.152.415-.082 1.604-7.871-2.871.842.822-2.648h3.149l2.359-7.556h-3.127z" clip-rule="evenodd"/>
    <path fill="#151317" fill-rule="evenodd" d="M15.133 21.408l-.394.62c-.47.74-.951 1.292-1.433 1.646-.582.457-1.332.69-2.227.69-.72 0-1.184-.177-1.381-.527-.065-.113-.35-.805.43-3.317.495-1.527 1.084-2.63 1.751-3.278.837-.838 1.782-1.245 2.89-1.245.401 0 .723.066.957.194.276.156.446.358.495.928l.105 1.224h8.445c-.834.92-1.493 1.945-1.97 3.065h-7.668zm18.712.985c-.328 1.04-.748 1.779-1.247 2.19-.52.418-.992.612-1.484.612-.438 0-.527-.153-.587-.256-.023-.038-.215-.414.186-1.694.28-.95.688-1.655 1.213-2.093.499-.4.987-.586 1.535-.586.403 0 .474.12.55.25.009.014.208.352-.166 1.577zm16.324.867c.286-.93.668-1.603 1.108-1.945.421-.343.82-.504 1.253-.504.223 0 .237.027.289.12.044.076.1.5-.206 1.438-.272.929-.64 1.61-1.067 1.966-.374.315-.715.468-1.043.468-.397 0-.463-.11-.507-.183-.001-.003-.152-.31.173-1.36zm10.784-.238c.195-.691.327-1.365.394-2.01l2.543.259c-.925.314-1.677.701-2.285 1.176-.23.179-.448.371-.652.575zm46.828-1.918l2.056-6.587h-3.127l1.972-6.32-9.82 4.073-.699 2.247h-2.125l-.15.478c-1-.535-1.98-.795-2.994-.795-.7 0-1.358.106-1.96.317h-8.113l-4.81 15.367-.046-.271c-.107-.65-.118-.972-.108-1.127.011-.163.07-.51.285-1.236l1.925-6.16c.269-.811.37-1.658.308-2.589-.068-.994-.41-1.865-.962-2.449-.706-.81-1.715-1.334-2.994-1.558-1.008-.2-2.38-.294-4.318-.294-1.129 0-2.194.076-3.257.234-1.184.183-2.044.42-2.701.742-1 .432-1.823.954-2.445 1.55-.663.605-1.265 1.415-1.839 2.476l-.464.858c.001-1.076-.196-2.07-.59-2.963-.617-1.322-2.02-2.898-5.195-2.898-1.107 0-2.153.196-3.184.598l.087-.28h-8.15l-1.79 5.716c-.045-1.088-.346-2.091-.899-2.995-1.282-2.016-3.692-3.038-7.162-3.038-2.89 0-5.46.771-7.637 2.295-.726.51-1.376 1.071-1.948 1.678v-1.169c0-2.953-.786-5.029-2.4-6.345-1.427-1.218-3.558-1.81-6.512-1.81-3.565 0-6.699.958-9.315 2.847-2.598 1.893-4.447 4.595-5.497 8.031-.844 2.665-.945 4.936-.299 6.752.685 1.877 1.811 3.21 3.346 3.964 1.42.71 3.373 1.07 5.803 1.07 2.025 0 3.79-.283 5.246-.838 1.476-.537 2.872-1.373 4.152-2.487.851-.765 1.791-1.86 2.53-2.936.055 1.973.955 3.326 1.737 4.134 1.394 1.394 3.497 2.102 6.249 2.102 2.93 0 5.531-.78 7.73-2.32 1.228-.859 2.246-1.883 3.036-3.054l-3.243 10.36h8.57l1.796-5.7c.108.054.218.106.328.153.812.372 1.764.56 2.831.56 2.122 0 4.11-.712 5.91-2.117.815-.64 1.544-1.425 2.171-2.337-.063 1.325.49 2.255 1.003 2.825.96 1.097 2.497 1.63 4.697 1.63 1.495 0 2.893-.223 4.158-.663.358-.127.728-.284 1.104-.47l.271.814h15.827l1.76-5.627c.774-2.458 1.5-3.55 1.967-4.027.37-.335.711-.484 1.105-.484.097 0 .383.027.948.276l.955.422.524-.632 2.689.006-.988 3.155c-.596 1.817-.799 3.09-.64 4.006.156 1.08.734 1.973 1.627 2.512.793.486 1.97.712 3.706.712 1.304 0 2.762-.156 4.336-.464l.877-.172 1.38-6.766-2.132.626c-.306.089-.582.16-.826.213l1.187-3.821h3.15z" clip-rule="evenodd"/>
    <path fill="#fff" fill-rule="evenodd" d="M18.556 27.192c1.221-1.099 2.664-2.931 3.323-4.446h-6.01c-.514.807-1.1 1.515-1.735 1.98-.807.634-1.833.977-3.055.977-1.245 0-2.1-.415-2.541-1.198-.464-.805-.342-2.273.317-4.398.563-1.734 1.247-3.005 2.077-3.811 1.1-1.1 2.395-1.638 3.837-1.638.635 0 1.172.123 1.613.367.781.44 1.1 1.124 1.173 1.98h6.034c0-1.906-.342-4.033-1.93-5.327-1.173-1.002-3.055-1.49-5.644-1.49-3.323 0-6.157.88-8.527 2.59-2.346 1.709-4.031 4.154-5.009 7.353-.758 2.395-.856 4.374-.317 5.889.561 1.539 1.441 2.614 2.687 3.225 1.222.611 2.956.929 5.204.929 1.833 0 3.445-.245 4.789-.757 1.343-.489 2.59-1.246 3.714-2.225zm14.88-1.563c.709-.585 1.27-1.514 1.686-2.834.366-1.197.39-2.102.025-2.688-.343-.587-.905-.879-1.686-.879-.856 0-1.638.292-2.371.88-.733.61-1.295 1.514-1.661 2.76-.391 1.247-.416 2.151-.049 2.76.342.588.929.906 1.734.906.832 0 1.588-.318 2.321-.905zm1.076-10.09c3.004 0 5.008.805 6.033 2.418.807 1.32.929 2.933.318 4.838-.683 2.15-1.979 3.91-3.933 5.278-1.955 1.368-4.277 2.077-6.963 2.077-2.42 0-4.18-.587-5.302-1.71-1.37-1.417-1.71-3.275-.978-5.573.659-2.124 1.979-3.884 3.959-5.277 1.953-1.367 4.25-2.052 6.866-2.052zm19.386 7.208c-.366 1.245-.879 2.1-1.49 2.613-.61.514-1.245.783-1.905.783-.758 0-1.32-.269-1.638-.808-.342-.536-.316-1.367.024-2.468.368-1.195.88-2.076 1.541-2.588.659-.538 1.343-.806 2.1-.806.66 0 1.15.244 1.443.78.316.538.293 1.37-.075 2.494zm5.695-5.084c-.662-1.416-1.98-2.125-3.983-2.125-1.002 0-1.98.195-2.957.612-.709.292-1.564.878-2.59 1.758l.635-2.052h-5.351l-6.035 19.28h5.767l2.102-6.672c.39.562.928.977 1.563 1.246.635.292 1.392.44 2.272.44 1.808 0 3.519-.612 5.082-1.833 1.588-1.246 2.737-3.005 3.47-5.327.66-2.125.66-3.884.025-5.327zm11.7 8.016c.367-.416.637-.978.858-1.637l.266-.856c-.879.268-1.757.488-2.686.708-1.247.294-2.077.563-2.467.856-.417.294-.684.61-.783.978-.147.415-.097.757.148 1.025.218.27.635.416 1.244.416.662 0 1.295-.146 1.931-.44.635-.294 1.123-.636 1.49-1.05zm7.11-8.746c.368.39.588.952.637 1.66.048.733-.026 1.417-.243 2.077l-1.933 6.181c-.194.66-.317 1.173-.342 1.54-.024.366.025.854.122 1.44h-5.35c-.123-.368-.17-.633-.17-.83 0-.196.023-.489.072-.88-.951.66-1.857 1.149-2.688 1.442-1.124.39-2.37.587-3.712.587-1.784 0-3.005-.391-3.69-1.173-.683-.758-.854-1.71-.488-2.858.318-1.05.929-1.931 1.808-2.615.879-.686 2.272-1.198 4.178-1.516 2.271-.413 3.738-.708 4.446-.854.683-.171 1.418-.391 2.223-.635.197-.66.197-1.125 0-1.393-.22-.27-.684-.391-1.416-.391-.953 0-1.686.146-2.248.415-.44.22-.855.636-1.273 1.246l-5.3-.537c.49-.905 1.003-1.613 1.565-2.125.538-.514 1.245-.954 2.1-1.32.585-.293 1.392-.49 2.346-.636.978-.146 1.978-.22 3.054-.22 1.709 0 3.08.074 4.055.27.977.17 1.735.536 2.247 1.125zm5.401-1.077h5.35l-.707 2.272c.83-.977 1.588-1.661 2.248-2.027.66-.392 1.391-.563 2.199-.563.855 0 1.685.245 2.54.733l-2.957 3.812c-.61-.27-1.098-.39-1.489-.39-.757 0-1.418.291-2.03.855-.828.83-1.612 2.347-2.318 4.592l-1.468 4.691H79.43l4.375-13.975zm21.087 0l1.661-5.326-6.598 2.736-.806 2.59h-2.126l-1.221 3.91h2.124l-1.537 4.91c-.513 1.564-.71 2.69-.587 3.397.098.684.439 1.222 1.002 1.562.562.345 1.565.515 3.006.515 1.22 0 2.589-.148 4.08-.44l.757-3.715c-.833.245-1.466.368-1.884.368-.486 0-.756-.171-.854-.465-.048-.195 0-.586.197-1.172l1.54-4.96h3.151l1.221-3.91h-3.126z" clip-rule="evenodd"/>
</svg>
