<svg width="138" height="32" viewBox="0 0 138 32" fill="none" xmlns="http://www.w3.org/2000/svg">
<path d="M8.25155 0H0.84375V14.2257H5.24728V3.34723H5.27471L12.8197 14.2257H14.8088V9.42437L8.25155 0Z" fill="#D4B25A"/>
<path d="M24.9147 0H32.3225V14.2257H27.919V3.34723H27.8915L20.3466 14.2257H18.3574V9.42437L24.9147 0Z" fill="#D4B25A"/>
<path d="M24.9147 32.0001H32.3225V17.7744H27.919V28.6529H27.8915L20.3466 17.7744H18.3574V22.5758L24.9147 32.0001Z" fill="#D4B25A"/>
<path d="M8.25155 32.0001H0.84375V17.7744H5.24728V28.6529H5.27471L12.8197 17.7744H14.8088V22.5758L8.25155 32.0001Z" fill="#D4B25A"/>
<path d="M46.3298 5.51172H52.4449L58.0531 21.339H58.1185L63.7594 5.51172H69.711V26.473H65.885L65.9831 8.50385H65.9177L59.5083 26.473H56.32L49.9106 8.50385H49.8452L49.9106 26.473H46.3135V5.51172H46.3298Z" fill="#ECECEC"/>
<path d="M73.9473 5.51172H77.7406V26.473H73.9473V5.51172Z" fill="#ECECEC"/>
<path d="M81.9734 5.51172H88.0884L93.6967 21.339H93.7621L99.403 5.51172H105.355V26.473H101.529L101.627 8.50385H101.561L95.1518 26.473H91.9635L85.5541 8.50385H85.4887L85.5541 26.473H81.957V5.51172H81.9734Z" fill="#ECECEC"/>
<path d="M109.605 5.51172H113.399V26.473H109.605V5.51172Z" fill="#ECECEC"/>
<path d="M116.899 16.0247C116.899 9.33735 121.363 5.20068 127.674 5.20068C133.184 5.20068 137.108 8.48712 137.108 13.3269C137.108 13.5558 137.076 13.9645 137.043 14.3406H133.658C133.691 14.0463 133.691 13.801 133.691 13.6375C133.691 10.4165 131.173 8.37267 127.805 8.37267C123.734 8.37267 120.791 11.3321 120.791 16.0247C120.791 20.7173 123.848 23.6113 127.805 23.6113C131.304 23.6113 133.756 21.6002 133.756 18.5754V18.0685H137.157V18.8043C137.157 23.5459 133.201 26.7996 127.658 26.7996C121.412 26.7996 116.883 22.6957 116.883 16.0247H116.899Z" fill="#ECECEC"/>
</svg>