<?xml version="1.0" encoding="UTF-8"?>
<!-- Generator: Adobe Illustrator 24.1.0, SVG Export Plug-In . SVG Version: 6.00 Build 0)  -->
<svg version="1.1" id="Layer_1" xmlns="http://www.w3.org/2000/svg" xmlns:xlink="http://www.w3.org/1999/xlink" x="0px" y="0px" viewBox="0 0 432 71.32" style="enable-background:new 0 0 432 71.32;" xml:space="preserve">
<style type="text/css">
	.st0{fill:#FFFFFF;}
</style>
<g>
	<g>
		<polygon class="st0" points="62.76,23.73 57.24,22.02 66.51,33.86   "/>
		<polygon class="st0" points="51.89,23.73 57.24,22.02 43.41,17.95   "/>
		<polygon class="st0" points="57.24,27.47 57.24,22.07 48.4,33.86   "/>
		<polygon class="st0" points="53.8,17.95 57.24,22.02 57.24,7.9   "/>
		<path class="st0" d="M61.82,15.75L57.31,2.59l-4.62,13.16H2.58v11.66h7.48l0.17,0.12l-0.84,3.94L3.23,62.22h13.03l2.39-11.79    l3.84-19.21l0.82-3.81h25.43l-0.79,2.22H26.31l-0.53,2.56l-2.57,12.61l-3.54,17.41h26.26c0.6-3.01,1.2-6.03,1.8-9.04l-13.16-0.05    c0.02-0.94,0.37-1.77,0.6-2.64l13.16-0.05c0.6-3.11,1.17-6.25,1.84-9.34h-0.25l-12.95-0.05c0.17-0.84,0.32-1.69,0.59-2.52h13.08    c0.34-1.68,0.68-3.36,1.02-5.03l4.34-2.94l-0.02,0.08L50.9,55.95l-1.27,6.28h24.73l1.84-9.04H64.19l-0.2-0.12    c0.27-0.82,0.2-1.8,0.55-2.57l12.2-0.05l1.89-9.34l-12.26-0.05l0.55-2.57h12.26l1.79-8.84H67.05l-0.81-2.22h45.41    c0.84-3.86,1.42-7.8,2.27-11.66H61.82z M63.68,23.98l4.24,11.72l-10.68-7.31L46.9,35.69l4.03-11.72l-9.69-6.9h11.96l4.03-11.26    l3.95,11.26h11.67L63.68,23.98z"/>
		<polygon class="st0" points="57.24,22.02 70.62,17.95 60.49,17.95   "/>
		<path class="st0" d="M80.21,50.44l12.48,0.05l-0.6,2.64l-12.43,0.05l-1.8,8.97h26.79l4.27-21.11L94.61,41l0.54-2.52h14.28    c0.5-2.98,1.17-5.9,1.75-8.84H84.39L80.21,50.44z"/>
	</g>
	<rect x="136.95" y="7.61" class="st0" width="1.47" height="59.57"/>
	<g>
		<path class="st0" d="M167.23,33.46h-2.05V17.62h-5.6V15.8h13.25v1.82h-5.6V33.46z"/>
		<path class="st0" d="M179.54,33.71c-1.96,0-3.5-0.6-4.63-1.79c-1.13-1.19-1.7-2.85-1.7-4.97c0-2.13,0.53-3.83,1.58-5.09    s2.46-1.89,4.24-1.89c1.66,0,2.97,0.55,3.94,1.64c0.97,1.09,1.45,2.53,1.45,4.32v1.27h-9.12c0.04,1.55,0.43,2.74,1.18,3.54    c0.75,0.81,1.79,1.21,3.15,1.21c1.43,0,2.84-0.3,4.23-0.89v1.79c-0.71,0.31-1.38,0.53-2.01,0.66    C181.19,33.64,180.43,33.71,179.54,33.71z M178.99,21.66c-1.06,0-1.91,0.35-2.54,1.04c-0.63,0.69-1,1.65-1.12,2.88h6.92    c0-1.26-0.28-2.23-0.85-2.91C180.85,21.99,180.04,21.66,178.99,21.66z"/>
		<path class="st0" d="M191.02,26.68l-4.6-6.47h2.28l3.49,5.08l3.48-5.08h2.26l-4.6,6.47l4.85,6.78h-2.27l-3.71-5.37l-3.75,5.37    h-2.27L191.02,26.68z"/>
		<path class="st0" d="M208.94,33.46l-0.4-1.89h-0.1c-0.66,0.83-1.32,1.39-1.98,1.69c-0.66,0.29-1.48,0.44-2.46,0.44    c-1.31,0-2.34-0.34-3.09-1.02c-0.75-0.68-1.12-1.64-1.12-2.89c0-2.67,2.14-4.08,6.42-4.21l2.25-0.07V24.7    c0-1.04-0.22-1.81-0.67-2.3s-1.16-0.74-2.15-0.74c-1.1,0-2.35,0.34-3.75,1.02l-0.62-1.53c0.65-0.35,1.37-0.63,2.15-0.83    c0.78-0.2,1.56-0.3,2.34-0.3c1.58,0,2.75,0.35,3.51,1.05c0.76,0.7,1.14,1.83,1.14,3.37v9.04H208.94z M204.41,32.05    c1.25,0,2.23-0.34,2.94-1.03c0.71-0.69,1.07-1.64,1.07-2.88v-1.2l-2.01,0.08c-1.6,0.06-2.75,0.3-3.45,0.74    c-0.71,0.44-1.06,1.12-1.06,2.05c0,0.73,0.22,1.28,0.66,1.66C203,31.86,203.62,32.05,204.41,32.05z"/>
		<path class="st0" d="M223.1,29.85c0,1.23-0.46,2.18-1.38,2.85c-0.92,0.67-2.21,1-3.87,1c-1.76,0-3.13-0.28-4.11-0.83v-1.86    c0.64,0.32,1.32,0.58,2.05,0.76c0.73,0.19,1.43,0.28,2.11,0.28c1.05,0,1.85-0.17,2.42-0.5c0.56-0.33,0.85-0.84,0.85-1.53    c0-0.52-0.22-0.96-0.67-1.32c-0.45-0.37-1.32-0.8-2.62-1.3c-1.23-0.46-2.11-0.86-2.63-1.2c-0.52-0.34-0.91-0.73-1.16-1.17    s-0.38-0.95-0.38-1.56c0-1.08,0.44-1.93,1.32-2.56s2.08-0.94,3.61-0.94c1.43,0,2.82,0.29,4.18,0.87l-0.71,1.63    c-1.33-0.55-2.53-0.82-3.61-0.82c-0.95,0-1.67,0.15-2.15,0.45c-0.48,0.3-0.72,0.71-0.72,1.23c0,0.35,0.09,0.66,0.27,0.91    c0.18,0.25,0.47,0.49,0.88,0.71c0.4,0.23,1.18,0.55,2.32,0.98c1.57,0.57,2.63,1.15,3.18,1.73S223.1,28.97,223.1,29.85z"/>
		<path class="st0" d="M244.2,33.46l-2.2-5.62h-7.08l-2.17,5.62h-2.08l6.99-17.74h1.73l6.95,17.74H244.2z M241.36,26l-2.05-5.47    c-0.27-0.69-0.54-1.54-0.82-2.55c-0.18,0.77-0.43,1.62-0.76,2.55L235.65,26H241.36z"/>
		<path class="st0" d="M247.69,28.88c0-1.05,0.28-1.97,0.84-2.78s1.57-1.62,3.02-2.44c-0.69-0.77-1.15-1.35-1.4-1.74    c-0.25-0.39-0.44-0.81-0.59-1.23c-0.14-0.43-0.22-0.87-0.22-1.33c0-1.21,0.4-2.15,1.18-2.83c0.79-0.68,1.89-1.02,3.3-1.02    c1.31,0,2.33,0.34,3.08,1.01c0.75,0.67,1.12,1.61,1.12,2.81c0,0.86-0.27,1.66-0.82,2.39c-0.55,0.73-1.45,1.47-2.72,2.22l4.92,4.73    c0.45-0.5,0.81-1.09,1.08-1.76c0.27-0.67,0.5-1.41,0.68-2.21h2.03c-0.55,2.3-1.37,4.05-2.48,5.24l3.61,3.52h-2.77l-2.24-2.15    c-0.95,0.85-1.92,1.47-2.9,1.84c-0.98,0.37-2.08,0.56-3.29,0.56c-1.73,0-3.08-0.43-4.03-1.28    C248.17,31.57,247.69,30.39,247.69,28.88z M253.2,31.91c1.94,0,3.55-0.62,4.83-1.86l-5.28-5.12c-0.89,0.55-1.53,1-1.9,1.36    c-0.37,0.36-0.64,0.74-0.82,1.15c-0.18,0.41-0.27,0.88-0.27,1.4c0,0.94,0.31,1.69,0.94,2.24    C251.33,31.63,252.17,31.91,253.2,31.91z M251.33,19.31c0,0.56,0.14,1.09,0.43,1.59s0.79,1.11,1.49,1.82    c1.04-0.6,1.76-1.16,2.17-1.67c0.41-0.51,0.61-1.1,0.61-1.77c0-0.62-0.21-1.13-0.62-1.52c-0.42-0.39-0.97-0.59-1.66-0.59    c-0.72,0-1.3,0.19-1.75,0.58S251.33,18.66,251.33,19.31z"/>
		<path class="st0" d="M274.64,33.46l-5.99-15.66h-0.1c0.11,1.24,0.17,2.71,0.17,4.42v11.24h-1.9V15.8h3.09l5.59,14.57h0.1    l5.64-14.57h3.07v17.67h-2.05V22.08c0-1.31,0.06-2.72,0.17-4.25h-0.1l-6.04,15.64H274.64z"/>
		<path class="st0" d="M305.45,33.46h-9.85V15.8h9.85v1.82h-7.79v5.69h7.32v1.81h-7.32v6.5h7.79V33.46z"/>
		<path class="st0" d="M318.12,33.46V24.9c0-1.08-0.25-1.89-0.74-2.42s-1.26-0.8-2.31-0.8c-1.39,0-2.4,0.38-3.05,1.12    c-0.64,0.75-0.97,1.99-0.97,3.71v6.95h-2.01V20.22h1.63l0.33,1.81h0.1c0.41-0.65,0.99-1.16,1.73-1.52s1.57-0.54,2.48-0.54    c1.59,0,2.8,0.38,3.6,1.15c0.81,0.77,1.21,2,1.21,3.69v8.64H318.12z"/>
		<path class="st0" d="M335.09,20.22v1.27l-2.45,0.29c0.23,0.28,0.43,0.65,0.6,1.11c0.18,0.46,0.27,0.97,0.27,1.54    c0,1.3-0.44,2.33-1.33,3.11c-0.89,0.77-2.1,1.16-3.65,1.16c-0.4,0-0.77-0.03-1.11-0.1c-0.85,0.45-1.28,1.02-1.28,1.7    c0,0.36,0.15,0.63,0.45,0.8s0.81,0.26,1.54,0.26h2.34c1.43,0,2.54,0.3,3.3,0.91c0.77,0.6,1.15,1.48,1.15,2.63    c0,1.47-0.59,2.58-1.76,3.35c-1.18,0.77-2.89,1.15-5.15,1.15c-1.73,0-3.07-0.32-4.01-0.97c-0.94-0.65-1.41-1.56-1.41-2.73    c0-0.81,0.26-1.5,0.77-2.09c0.51-0.59,1.24-0.99,2.17-1.2c-0.34-0.15-0.62-0.39-0.85-0.71c-0.23-0.32-0.34-0.7-0.34-1.12    c0-0.48,0.13-0.91,0.39-1.27s0.67-0.71,1.22-1.05c-0.69-0.28-1.24-0.76-1.67-1.44c-0.43-0.68-0.65-1.45-0.65-2.32    c0-1.45,0.43-2.57,1.3-3.35s2.1-1.18,3.7-1.18c0.69,0,1.32,0.08,1.87,0.24H335.09z M324.53,35.69c0,0.72,0.3,1.26,0.91,1.63    c0.6,0.37,1.47,0.56,2.6,0.56c1.68,0,2.93-0.25,3.74-0.75c0.81-0.5,1.21-1.19,1.21-2.05c0-0.72-0.22-1.21-0.67-1.49    s-1.28-0.42-2.5-0.42h-2.41c-0.91,0-1.62,0.22-2.13,0.65S324.53,34.87,324.53,35.69z M325.62,24.46c0,0.93,0.26,1.63,0.79,2.1    c0.52,0.48,1.25,0.71,2.19,0.71c1.96,0,2.94-0.95,2.94-2.85c0-1.99-0.99-2.99-2.97-2.99c-0.94,0-1.67,0.25-2.17,0.76    C325.87,22.71,325.62,23.46,325.62,24.46z"/>
		<path class="st0" d="M337.64,16.63c0-0.46,0.11-0.8,0.34-1.01s0.51-0.32,0.85-0.32c0.32,0,0.6,0.11,0.83,0.33    c0.23,0.22,0.35,0.55,0.35,1s-0.12,0.79-0.35,1.01s-0.51,0.33-0.83,0.33c-0.34,0-0.62-0.11-0.85-0.33S337.64,17.08,337.64,16.63z     M339.81,33.46h-2.01V20.22h2.01V33.46z"/>
		<path class="st0" d="M353.13,33.46V24.9c0-1.08-0.25-1.89-0.74-2.42s-1.26-0.8-2.31-0.8c-1.39,0-2.4,0.38-3.05,1.12    c-0.64,0.75-0.97,1.99-0.97,3.71v6.95h-2.01V20.22h1.63l0.33,1.81h0.1c0.41-0.65,0.99-1.16,1.73-1.52s1.57-0.54,2.48-0.54    c1.59,0,2.8,0.38,3.6,1.15c0.81,0.77,1.21,2,1.21,3.69v8.64H353.13z"/>
		<path class="st0" d="M364.85,33.71c-1.96,0-3.5-0.6-4.63-1.79c-1.13-1.19-1.7-2.85-1.7-4.97c0-2.13,0.53-3.83,1.58-5.09    s2.46-1.89,4.24-1.89c1.66,0,2.97,0.55,3.94,1.64c0.97,1.09,1.45,2.53,1.45,4.32v1.27h-9.12c0.04,1.55,0.43,2.74,1.18,3.54    c0.75,0.81,1.79,1.21,3.15,1.21c1.43,0,2.83-0.3,4.23-0.89v1.79c-0.71,0.31-1.38,0.53-2.01,0.66    C366.51,33.64,365.75,33.71,364.85,33.71z M364.31,21.66c-1.06,0-1.91,0.35-2.54,1.04c-0.63,0.69-1.01,1.65-1.12,2.88h6.92    c0-1.26-0.28-2.23-0.85-2.91C366.16,21.99,365.36,21.66,364.31,21.66z"/>
		<path class="st0" d="M378.74,33.71c-1.96,0-3.5-0.6-4.63-1.79c-1.13-1.19-1.7-2.85-1.7-4.97c0-2.13,0.53-3.83,1.58-5.09    s2.46-1.89,4.24-1.89c1.66,0,2.97,0.55,3.94,1.64c0.97,1.09,1.45,2.53,1.45,4.32v1.27h-9.12c0.04,1.55,0.43,2.74,1.18,3.54    c0.75,0.81,1.79,1.21,3.15,1.21c1.43,0,2.83-0.3,4.23-0.89v1.79c-0.71,0.31-1.38,0.53-2.01,0.66    C380.4,33.64,379.63,33.71,378.74,33.71z M378.2,21.66c-1.06,0-1.91,0.35-2.54,1.04c-0.63,0.69-1.01,1.65-1.12,2.88h6.92    c0-1.26-0.28-2.23-0.85-2.91C380.05,21.99,379.24,21.66,378.2,21.66z"/>
		<path class="st0" d="M393.07,19.98c0.59,0,1.12,0.05,1.58,0.15l-0.28,1.86c-0.55-0.12-1.03-0.18-1.45-0.18    c-1.07,0-1.99,0.44-2.75,1.31c-0.76,0.87-1.14,1.95-1.14,3.25v7.11h-2.01V20.22h1.66l0.23,2.45h0.1c0.49-0.86,1.08-1.53,1.78-1.99    C391.48,20.21,392.24,19.98,393.07,19.98z"/>
		<path class="st0" d="M396.96,16.63c0-0.46,0.11-0.8,0.34-1.01s0.51-0.32,0.85-0.32c0.32,0,0.6,0.11,0.83,0.33    c0.23,0.22,0.35,0.55,0.35,1s-0.12,0.79-0.35,1.01s-0.51,0.33-0.83,0.33c-0.34,0-0.62-0.11-0.85-0.33S396.96,17.08,396.96,16.63z     M399.14,33.46h-2.01V20.22h2.01V33.46z"/>
		<path class="st0" d="M412.46,33.46V24.9c0-1.08-0.25-1.89-0.74-2.42s-1.26-0.8-2.31-0.8c-1.39,0-2.4,0.38-3.05,1.12    c-0.64,0.75-0.97,1.99-0.97,3.71v6.95h-2.01V20.22h1.63l0.33,1.81h0.1c0.41-0.65,0.99-1.16,1.73-1.52s1.57-0.54,2.48-0.54    c1.59,0,2.8,0.38,3.6,1.15c0.81,0.77,1.21,2,1.21,3.69v8.64H412.46z"/>
		<path class="st0" d="M429.42,20.22v1.27l-2.45,0.29c0.23,0.28,0.43,0.65,0.6,1.11c0.18,0.46,0.27,0.97,0.27,1.54    c0,1.3-0.44,2.33-1.33,3.11c-0.89,0.77-2.1,1.16-3.65,1.16c-0.4,0-0.77-0.03-1.11-0.1c-0.85,0.45-1.28,1.02-1.28,1.7    c0,0.36,0.15,0.63,0.45,0.8s0.81,0.26,1.54,0.26h2.34c1.43,0,2.54,0.3,3.3,0.91c0.77,0.6,1.15,1.48,1.15,2.63    c0,1.47-0.59,2.58-1.76,3.35c-1.18,0.77-2.89,1.15-5.15,1.15c-1.73,0-3.07-0.32-4.01-0.97c-0.94-0.65-1.41-1.56-1.41-2.73    c0-0.81,0.26-1.5,0.77-2.09c0.51-0.59,1.24-0.99,2.17-1.2c-0.34-0.15-0.62-0.39-0.85-0.71c-0.23-0.32-0.34-0.7-0.34-1.12    c0-0.48,0.13-0.91,0.39-1.27s0.67-0.71,1.22-1.05c-0.69-0.28-1.24-0.76-1.67-1.44c-0.43-0.68-0.65-1.45-0.65-2.32    c0-1.45,0.43-2.57,1.3-3.35s2.1-1.18,3.7-1.18c0.69,0,1.32,0.08,1.87,0.24H429.42z M418.86,35.69c0,0.72,0.3,1.26,0.91,1.63    c0.6,0.37,1.47,0.56,2.6,0.56c1.68,0,2.93-0.25,3.74-0.75c0.81-0.5,1.21-1.19,1.21-2.05c0-0.72-0.22-1.21-0.67-1.49    s-1.28-0.42-2.5-0.42h-2.41c-0.91,0-1.62,0.22-2.13,0.65S418.86,34.87,418.86,35.69z M419.95,24.46c0,0.93,0.26,1.63,0.79,2.1    c0.52,0.48,1.25,0.71,2.19,0.71c1.96,0,2.94-0.95,2.94-2.85c0-1.99-0.99-2.99-2.97-2.99c-0.94,0-1.67,0.25-2.17,0.76    C420.2,22.71,419.95,23.46,419.95,24.46z"/>
		<path class="st0" d="M171.64,61.99h-9.85V44.33h9.85v1.82h-7.79v5.69h7.32v1.81h-7.32v6.5h7.79V61.99z"/>
		<path class="st0" d="M178.44,55.21l-4.6-6.47h2.28l3.49,5.08l3.48-5.08h2.26l-4.6,6.47l4.85,6.78h-2.27l-3.71-5.37l-3.75,5.37    h-2.27L178.44,55.21z"/>
		<path class="st0" d="M194.38,62.24c-0.86,0-1.65-0.16-2.36-0.48c-0.71-0.32-1.31-0.81-1.79-1.47h-0.15    c0.1,0.77,0.15,1.51,0.15,2.2v5.45h-2.01V48.75h1.63l0.28,1.81h0.1c0.52-0.73,1.12-1.25,1.8-1.57c0.68-0.32,1.47-0.48,2.36-0.48    c1.76,0,3.11,0.6,4.07,1.8c0.95,1.2,1.43,2.88,1.43,5.05c0,2.18-0.49,3.87-1.46,5.07C197.45,61.63,196.1,62.24,194.38,62.24z     M194.09,50.21c-1.35,0-2.33,0.38-2.94,1.12c-0.6,0.75-0.91,1.94-0.93,3.58v0.45c0,1.86,0.31,3.19,0.93,3.99    c0.62,0.8,1.62,1.2,2.98,1.2c1.14,0,2.04-0.46,2.69-1.39c0.65-0.93,0.97-2.2,0.97-3.83c0-1.65-0.32-2.92-0.97-3.8    C196.18,50.65,195.27,50.21,194.09,50.21z"/>
		<path class="st0" d="M208.36,62.24c-1.96,0-3.5-0.6-4.63-1.79s-1.7-2.85-1.7-4.97c0-2.13,0.53-3.83,1.58-5.09s2.46-1.89,4.24-1.89    c1.66,0,2.97,0.55,3.94,1.64c0.97,1.09,1.45,2.53,1.45,4.32v1.27h-9.12c0.04,1.55,0.43,2.74,1.18,3.54    c0.75,0.81,1.79,1.21,3.15,1.21c1.43,0,2.84-0.3,4.23-0.89v1.79c-0.71,0.31-1.38,0.53-2.01,0.66    C210.02,62.17,209.26,62.24,208.36,62.24z M207.82,50.19c-1.06,0-1.91,0.35-2.54,1.04c-0.63,0.69-1,1.65-1.12,2.88h6.92    c0-1.26-0.28-2.23-0.85-2.91C209.67,50.52,208.86,50.19,207.82,50.19z"/>
		<path class="st0" d="M222.69,48.51c0.59,0,1.12,0.05,1.58,0.15L224,50.51c-0.55-0.12-1.03-0.18-1.45-0.18    c-1.07,0-1.99,0.44-2.75,1.31c-0.76,0.87-1.14,1.95-1.14,3.25v7.11h-2.01V48.75h1.66l0.23,2.45h0.1c0.49-0.86,1.08-1.53,1.78-1.99    C221.1,48.74,221.86,48.51,222.69,48.51z"/>
		<path class="st0" d="M226.58,45.16c0-0.46,0.11-0.8,0.34-1.01s0.51-0.32,0.85-0.32c0.32,0,0.6,0.11,0.83,0.33    c0.23,0.22,0.35,0.55,0.35,1s-0.12,0.79-0.35,1.01c-0.23,0.22-0.51,0.33-0.83,0.33c-0.34,0-0.62-0.11-0.85-0.33    S226.58,45.61,226.58,45.16z M228.76,61.99h-2.01V48.75h2.01V61.99z"/>
		<path class="st0" d="M249.9,61.99v-8.62c0-1.06-0.23-1.85-0.68-2.37c-0.45-0.53-1.15-0.79-2.1-0.79c-1.25,0-2.17,0.36-2.77,1.08    c-0.6,0.72-0.89,1.82-0.89,3.31v7.4h-2.01v-8.62c0-1.06-0.23-1.85-0.68-2.37c-0.45-0.53-1.16-0.79-2.12-0.79    c-1.26,0-2.18,0.38-2.76,1.13c-0.58,0.75-0.88,1.99-0.88,3.7v6.95h-2.01V48.75h1.63l0.33,1.81h0.1c0.38-0.64,0.91-1.15,1.6-1.51    c0.69-0.36,1.46-0.54,2.31-0.54c2.07,0,3.42,0.75,4.06,2.25h0.1c0.39-0.69,0.97-1.24,1.72-1.64c0.75-0.4,1.6-0.6,2.56-0.6    c1.5,0,2.62,0.38,3.37,1.15c0.75,0.77,1.12,2,1.12,3.69v8.64H249.9z"/>
		<path class="st0" d="M261.63,62.24c-1.96,0-3.5-0.6-4.63-1.79s-1.7-2.85-1.7-4.97c0-2.13,0.53-3.83,1.58-5.09    c1.05-1.26,2.46-1.89,4.24-1.89c1.66,0,2.97,0.55,3.94,1.64c0.97,1.09,1.45,2.53,1.45,4.32v1.27h-9.12    c0.04,1.55,0.43,2.74,1.18,3.54c0.75,0.81,1.79,1.21,3.15,1.21c1.43,0,2.84-0.3,4.23-0.89v1.79c-0.71,0.31-1.38,0.53-2.01,0.66    C263.29,62.17,262.52,62.24,261.63,62.24z M261.09,50.19c-1.06,0-1.91,0.35-2.54,1.04c-0.63,0.69-1,1.65-1.12,2.88h6.92    c0-1.26-0.28-2.23-0.85-2.91C262.94,50.52,262.13,50.19,261.09,50.19z"/>
		<path class="st0" d="M278.98,61.99v-8.57c0-1.08-0.25-1.89-0.74-2.42s-1.26-0.8-2.31-0.8c-1.39,0-2.4,0.38-3.04,1.12    c-0.64,0.75-0.97,1.99-0.97,3.71v6.95h-2.01V48.75h1.63l0.33,1.81h0.1c0.41-0.65,0.99-1.16,1.73-1.52s1.57-0.54,2.48-0.54    c1.59,0,2.79,0.38,3.6,1.15c0.81,0.77,1.21,2,1.21,3.69v8.64H278.98z"/>
		<path class="st0" d="M289.39,60.58c0.35,0,0.7-0.03,1.03-0.08c0.33-0.05,0.59-0.11,0.79-0.16v1.54c-0.22,0.1-0.54,0.19-0.96,0.26    c-0.42,0.07-0.8,0.1-1.14,0.1c-2.56,0-3.84-1.35-3.84-4.05v-7.88h-1.9v-0.97l1.9-0.83l0.85-2.83h1.16v3.07h3.84v1.56h-3.84v7.79    c0,0.8,0.19,1.41,0.57,1.84C288.21,60.37,288.73,60.58,289.39,60.58z"/>
		<path class="st0" d="M310.55,57.29c0,1.55-0.56,2.77-1.69,3.64s-2.66,1.31-4.59,1.31c-2.09,0-3.71-0.27-4.83-0.81v-1.98    c0.72,0.31,1.51,0.55,2.37,0.73s1.7,0.27,2.54,0.27c1.37,0,2.4-0.26,3.09-0.78c0.69-0.52,1.04-1.24,1.04-2.17    c0-0.61-0.12-1.11-0.37-1.5c-0.25-0.39-0.66-0.75-1.23-1.08c-0.58-0.33-1.45-0.7-2.63-1.12c-1.64-0.59-2.82-1.28-3.52-2.09    c-0.71-0.81-1.06-1.86-1.06-3.15c0-1.36,0.51-2.44,1.53-3.25c1.02-0.81,2.38-1.21,4.06-1.21c1.76,0,3.37,0.32,4.85,0.97    l-0.64,1.79c-1.46-0.61-2.88-0.92-4.25-0.92c-1.09,0-1.94,0.23-2.55,0.7s-0.92,1.12-0.92,1.95c0,0.61,0.11,1.11,0.34,1.5    c0.23,0.39,0.61,0.75,1.14,1.08s1.36,0.69,2.46,1.08c1.85,0.66,3.13,1.37,3.83,2.13C310.2,55.1,310.55,56.08,310.55,57.29z"/>
		<path class="st0" d="M318.14,60.58c0.35,0,0.7-0.03,1.03-0.08c0.33-0.05,0.59-0.11,0.79-0.16v1.54c-0.22,0.1-0.54,0.19-0.96,0.26    c-0.42,0.07-0.8,0.1-1.14,0.1c-2.56,0-3.84-1.35-3.84-4.05v-7.88h-1.9v-0.97l1.9-0.83l0.85-2.83h1.16v3.07h3.84v1.56h-3.84v7.79    c0,0.8,0.19,1.41,0.57,1.84C316.96,60.37,317.48,60.58,318.14,60.58z"/>
		<path class="st0" d="M330.74,61.99l-0.4-1.89h-0.1c-0.66,0.83-1.32,1.39-1.98,1.69c-0.66,0.29-1.48,0.44-2.46,0.44    c-1.31,0-2.34-0.34-3.09-1.02s-1.12-1.64-1.12-2.89c0-2.67,2.14-4.08,6.42-4.21l2.25-0.07v-0.82c0-1.04-0.22-1.81-0.67-2.3    s-1.16-0.74-2.14-0.74c-1.1,0-2.35,0.34-3.75,1.02l-0.62-1.53c0.65-0.35,1.37-0.63,2.15-0.83c0.78-0.2,1.56-0.3,2.34-0.3    c1.58,0,2.75,0.35,3.51,1.05c0.76,0.7,1.14,1.83,1.14,3.37v9.04H330.74z M326.21,60.58c1.25,0,2.23-0.34,2.94-1.03    c0.71-0.69,1.07-1.64,1.07-2.88v-1.2l-2.01,0.08c-1.59,0.06-2.75,0.3-3.45,0.74c-0.71,0.44-1.06,1.12-1.06,2.05    c0,0.73,0.22,1.28,0.66,1.66C324.81,60.39,325.42,60.58,326.21,60.58z"/>
		<path class="st0" d="M340.64,60.58c0.35,0,0.7-0.03,1.03-0.08c0.33-0.05,0.59-0.11,0.79-0.16v1.54c-0.22,0.1-0.54,0.19-0.96,0.26    c-0.42,0.07-0.8,0.1-1.14,0.1c-2.56,0-3.84-1.35-3.84-4.05v-7.88h-1.9v-0.97l1.9-0.83l0.85-2.83h1.16v3.07h3.84v1.56h-3.84v7.79    c0,0.8,0.19,1.41,0.57,1.84C339.46,60.37,339.98,60.58,340.64,60.58z"/>
		<path class="st0" d="M344.93,45.16c0-0.46,0.11-0.8,0.34-1.01s0.51-0.32,0.85-0.32c0.32,0,0.6,0.11,0.83,0.33    c0.23,0.22,0.35,0.55,0.35,1s-0.12,0.79-0.35,1.01s-0.51,0.33-0.83,0.33c-0.34,0-0.62-0.11-0.85-0.33S344.93,45.61,344.93,45.16z     M347.1,61.99h-2.01V48.75h2.01V61.99z"/>
		<path class="st0" d="M362.79,55.36c0,2.16-0.54,3.84-1.63,5.06c-1.09,1.21-2.59,1.82-4.51,1.82c-1.18,0-2.24-0.28-3.15-0.83    c-0.92-0.56-1.63-1.35-2.13-2.39c-0.5-1.04-0.75-2.26-0.75-3.65c0-2.16,0.54-3.84,1.62-5.05c1.08-1.2,2.58-1.81,4.5-1.81    c1.85,0,3.33,0.62,4.42,1.85C362.24,51.59,362.79,53.26,362.79,55.36z M352.7,55.36c0,1.69,0.34,2.98,1.01,3.87    c0.68,0.89,1.67,1.33,2.99,1.33c1.31,0,2.31-0.44,2.99-1.32c0.68-0.88,1.02-2.17,1.02-3.87c0-1.68-0.34-2.96-1.02-3.84    s-1.69-1.31-3.01-1.31c-1.31,0-2.3,0.43-2.97,1.29C353.03,52.37,352.7,53.65,352.7,55.36z"/>
		<path class="st0" d="M375.37,61.99v-8.57c0-1.08-0.25-1.89-0.74-2.42s-1.26-0.8-2.31-0.8c-1.39,0-2.4,0.38-3.05,1.12    c-0.64,0.75-0.97,1.99-0.97,3.71v6.95h-2.01V48.75h1.63l0.33,1.81h0.1c0.41-0.65,0.99-1.16,1.73-1.52s1.57-0.54,2.48-0.54    c1.59,0,2.8,0.38,3.6,1.15c0.81,0.77,1.21,2,1.21,3.69v8.64H375.37z"/>
	</g>
</g>
</svg>