<svg width="364" height="115" viewBox="0 0 364 115" fill="none" xmlns="http://www.w3.org/2000/svg">
<path d="M63.36 66L69.504 78H56.064L49.92 66L35.232 37.2L20.544 66L14.4 78H0.96L7.104 66L35.232 10.8L63.36 66ZM130.98 38.736C136.74 42.576 140.58 49.104 140.58 56.592C140.58 68.4 130.98 78 119.172 78H73.38V10.8H115.716C125.7 10.8 133.86 18.96 133.86 28.944C133.86 32.592 132.804 35.952 130.98 38.736ZM85.38 22.8V35.088H115.812C119.172 35.088 121.956 32.304 121.956 28.944C121.956 25.584 119.172 22.8 115.812 22.8H85.38ZM119.172 66V65.904C124.356 65.904 128.58 61.68 128.58 56.496C128.58 51.312 124.356 47.088 119.172 47.088H85.38V66H119.172ZM177.194 10.8C195.722 10.8 210.794 25.872 210.794 44.4C210.794 62.928 195.722 78 177.194 78C158.666 78 143.594 62.928 143.594 44.4C143.594 25.872 158.666 10.8 177.194 10.8ZM177.194 66C189.098 66 198.794 56.304 198.794 44.4C198.794 32.496 189.098 22.8 177.194 22.8C165.29 22.8 155.594 32.496 155.594 44.4C155.594 56.304 165.29 66 177.194 66ZM271.365 10.8H283.365V44.4C283.365 62.928 268.293 78 249.765 78C231.237 78 216.165 62.928 216.165 44.4V10.8H228.165V44.4C228.165 56.304 237.861 66 249.765 66C261.669 66 271.365 56.304 271.365 44.4V10.8ZM291.026 10.896H358.13V22.896H330.578V78.096H318.578V22.896H291.026V10.896Z" fill="#C1C1C1"/>
<path d="M0.909167 96.2898H13.6193V98.5628H8.4007V109.018H6.12778V98.5628H0.909167V96.2898ZM18.5253 98.5446C17.8888 98.5446 17.3615 99.0719 17.3615 99.7083V100.89H25.544V103.163H17.3615V105.563C17.3615 106.2 17.8888 106.727 18.5253 106.727H27.8169V109H18.5253C16.6342 109 15.1068 107.454 15.1068 105.563V99.7083C15.1068 97.8173 16.6342 96.2717 18.5253 96.2717H27.8169V98.5446H18.5253ZM28.8135 109.055V109.018H28.8498L28.8135 109.055ZM41.5418 109.018V109.055L41.5236 109.018H41.5418ZM41.5418 96.2898H41.5782L36.6505 102.672L41.56 109.018H38.687L35.214 104.527L31.741 109.018H28.868L33.7593 102.672L28.8317 96.2898H31.7046L35.1958 100.818L38.687 96.2898H41.5418ZM53.6337 106.727L54.7975 109H52.2518L51.0881 106.727L48.306 101.272L45.524 106.727L44.3602 109H41.8146L42.9783 106.727L48.306 96.2717L53.6337 106.727ZM66.5746 99.781L64.3017 99.7992V99.7265C64.3017 99.0901 63.7743 98.5628 63.1379 98.5628H57.9739C57.3374 98.5628 56.8101 99.0901 56.8101 99.7265V99.7992C56.8101 100.436 57.3374 100.963 57.9739 100.963H62.5561C63.738 100.963 64.7926 101.472 65.5199 102.272C65.5745 102.327 65.6109 102.381 65.6654 102.436C66.2291 103.127 66.5746 104.018 66.5746 104.981C66.5746 107.2 64.7744 109 62.5561 109H58.5739C56.3555 109 54.5554 107.2 54.5554 104.981H56.8283C56.8283 105.945 57.6102 106.727 58.5739 106.727H62.5561C63.5198 106.727 64.3198 105.945 64.3198 104.981C64.3198 104.018 63.5198 103.236 62.5561 103.236H57.9739C57.0465 103.236 56.2101 102.872 55.5918 102.272C55.4282 102.109 55.2827 101.927 55.1554 101.727C54.7736 101.181 54.5554 100.508 54.5554 99.781V99.7083C54.5554 97.8173 56.0828 96.2717 57.9739 96.2717H63.1379C65.029 96.2717 66.5746 97.8173 66.5746 99.7083V99.781ZM87.6131 106.727L88.7769 109H86.2312L85.0675 106.727L82.2854 101.272L79.5034 106.727L78.3396 109H75.794L76.9577 106.727L82.2854 96.2717L87.6131 106.727ZM93.2568 101.49L102.094 101.436V103.727H99.821V108.945H93.2568C91.2021 108.945 89.5292 107.273 89.5292 105.218C89.5292 104.2 89.9292 103.272 90.5838 102.599C89.9292 101.927 89.5292 100.999 89.5292 99.9811C89.5292 97.9264 91.2021 96.2535 93.2568 96.2535H99.821V98.5264H93.2568C92.4567 98.5264 91.7839 99.1992 91.7839 99.9992C91.7839 100.818 92.4567 101.49 93.2568 101.49ZM97.5662 106.673V103.709H93.275C92.4749 103.709 91.8021 104.381 91.8021 105.2C91.8021 106 92.4749 106.673 93.275 106.673H97.5662ZM113.986 98.0173L116.259 96.2717V109H113.986V100.89L111.75 102.599L109.895 104.036L108.04 102.599L105.804 100.89V109H103.531V96.2717L105.804 98.0173L109.895 101.163L113.986 98.0173ZM132.39 98.5446C130.135 98.5446 128.298 100.381 128.298 102.636C128.298 104.891 130.135 106.727 132.39 106.727H138.754V109H132.39C128.88 109 126.025 106.145 126.025 102.636C126.025 99.1264 128.88 96.2717 132.39 96.2717H138.754V98.5446H132.39ZM150.064 96.2535H152.919L147.992 102.636L147.719 102.981V108.982H145.446V103.018L145.137 102.636L140.209 96.2535H143.082L146.573 100.781L150.064 96.2535ZM140.191 109.036V109H140.227L140.191 109.036ZM152.919 109.036L152.901 109H152.919V109.036ZM165.299 101.563C166.39 102.29 167.117 103.527 167.117 104.945C167.117 107.182 165.299 109 163.062 109H154.389V96.2717H162.407C164.298 96.2717 165.844 97.8173 165.844 99.7083C165.844 100.399 165.644 101.036 165.299 101.563ZM156.661 98.5446V100.872H162.426C163.062 100.872 163.589 100.345 163.589 99.7083C163.589 99.0719 163.062 98.5446 162.426 98.5446H156.661ZM163.062 106.727V106.709C164.044 106.709 164.844 105.909 164.844 104.927C164.844 103.945 164.044 103.145 163.062 103.145H156.661V106.727H163.062ZM171.561 98.5446C170.924 98.5446 170.397 99.0719 170.397 99.7083V100.89H178.58V103.163H170.397V105.563C170.397 106.2 170.924 106.727 171.561 106.727H180.852V109H171.561C169.67 109 168.142 107.454 168.142 105.563V99.7083C168.142 97.8173 169.67 96.2717 171.561 96.2717H180.852V98.5446H171.561ZM190.759 103.127L192.577 106.763L193.741 109.036H191.195L190.031 106.763L188.813 104.381L188.759 104.272C188.359 103.618 187.649 103.181 186.831 103.181H184.558V109.036H182.285V96.308H190.322C191.268 96.308 192.123 96.6899 192.741 97.3081C193.359 97.9264 193.741 98.781 193.741 99.7265C193.741 101.108 192.923 102.309 191.741 102.854C191.432 103 191.104 103.09 190.759 103.127ZM184.558 100.927L190.322 100.908C190.486 100.908 190.65 100.872 190.795 100.799C191.213 100.617 191.486 100.199 191.486 99.7447C191.486 99.3265 191.268 99.0355 191.141 98.9083C190.995 98.7628 190.722 98.581 190.322 98.581H184.558V100.927ZM207.26 99.781L204.987 99.7992V99.7265C204.987 99.0901 204.459 98.5628 203.823 98.5628H198.659C198.022 98.5628 197.495 99.0901 197.495 99.7265V99.7992C197.495 100.436 198.022 100.963 198.659 100.963H203.241C204.423 100.963 205.478 101.472 206.205 102.272C206.26 102.327 206.296 102.381 206.35 102.436C206.914 103.127 207.26 104.018 207.26 104.981C207.26 107.2 205.459 109 203.241 109H199.259C197.041 109 195.24 107.2 195.24 104.981H197.513C197.513 105.945 198.295 106.727 199.259 106.727H203.241C204.205 106.727 205.005 105.945 205.005 104.981C205.005 104.018 204.205 103.236 203.241 103.236H198.659C197.732 103.236 196.895 102.872 196.277 102.272C196.113 102.109 195.968 101.927 195.84 101.727C195.459 101.181 195.24 100.508 195.24 99.781V99.7083C195.24 97.8173 196.768 96.2717 198.659 96.2717H203.823C205.714 96.2717 207.26 97.8173 207.26 99.7083V99.781ZM212.146 98.5446C211.509 98.5446 210.982 99.0719 210.982 99.7083V100.89H219.165V103.163H210.982V105.563C210.982 106.2 211.509 106.727 212.146 106.727H221.437V109H212.146C210.255 109 208.727 107.454 208.727 105.563V99.7083C208.727 97.8173 210.255 96.2717 212.146 96.2717H221.437V98.5446H212.146ZM228.077 98.5446C225.822 98.5446 223.985 100.381 223.985 102.636C223.985 104.891 225.822 106.727 228.077 106.727H234.441V109H228.077C224.567 109 221.712 106.145 221.712 102.636C221.712 99.1264 224.567 96.2717 228.077 96.2717H234.441V98.5446H228.077ZM246.351 96.2717H248.624V102.636C248.624 106.145 245.77 109 242.26 109C238.751 109 235.896 106.145 235.896 102.636V96.2717H238.169V102.636C238.169 104.891 240.005 106.727 242.26 106.727C244.515 106.727 246.351 104.891 246.351 102.636V96.2717ZM258.531 103.127L260.349 106.763L261.513 109.036H258.967L257.803 106.763L256.585 104.381L256.531 104.272C256.131 103.618 255.421 103.181 254.603 103.181H252.33V109.036H250.057V96.308H258.094C259.04 96.308 259.895 96.6899 260.513 97.3081C261.131 97.9264 261.513 98.781 261.513 99.7265C261.513 101.108 260.695 102.309 259.513 102.854C259.204 103 258.876 103.09 258.531 103.127ZM252.33 100.927L258.094 100.908C258.258 100.908 258.422 100.872 258.567 100.799C258.985 100.617 259.258 100.199 259.258 99.7447C259.258 99.3265 259.04 99.0355 258.913 98.9083C258.767 98.7628 258.494 98.581 258.094 98.581H252.33V100.927ZM265.267 109H262.994V96.2717H265.267V109ZM266.715 96.2898H279.425V98.5628H274.206V109.018H271.933V98.5628H266.715V96.2898ZM290.749 96.2535H293.604L288.677 102.636L288.404 102.981V108.982H286.131V103.018L285.822 102.636L280.894 96.2535H283.767L287.258 100.781L290.749 96.2535ZM280.876 109.036V109H280.912L280.876 109.036ZM293.604 109.036L293.586 109H293.604V109.036ZM309.753 98.5446C307.498 98.5446 305.662 100.381 305.662 102.636C305.662 104.891 307.498 106.727 309.753 106.727H316.117V109H309.753C306.244 109 303.389 106.145 303.389 102.636C303.389 99.1264 306.244 96.2717 309.753 96.2717H316.117V98.5446H309.753ZM321.391 106.727L328.064 106.745V109.018H321.609C320.973 109.018 320.373 108.873 319.827 108.6C319.027 108.2 318.373 107.545 317.991 106.745C317.718 106.2 317.573 105.6 317.573 104.963V96.2898H319.846V105.182C319.955 105.982 320.591 106.618 321.391 106.727ZM338.567 96.2717H340.84V102.636C340.84 106.145 337.985 109 334.476 109C330.967 109 328.112 106.145 328.112 102.636V96.2717H330.385V102.636C330.385 104.891 332.221 106.727 334.476 106.727C336.731 106.727 338.567 104.891 338.567 102.636V96.2717ZM353.201 101.563C354.292 102.29 355.02 103.527 355.02 104.945C355.02 107.182 353.201 109 350.965 109H342.291V96.2717H350.31C352.201 96.2717 353.747 97.8173 353.747 99.7083C353.747 100.399 353.547 101.036 353.201 101.563ZM344.564 98.5446V100.872H350.328C350.965 100.872 351.492 100.345 351.492 99.7083C351.492 99.0719 350.965 98.5446 350.328 98.5446H344.564ZM350.965 106.727V106.709C351.947 106.709 352.747 105.909 352.747 104.927C352.747 103.945 351.947 103.145 350.965 103.145H344.564V106.727H350.965Z" fill="#C1C1C1"/>
</svg>
